<svg xmlns="http://www.w3.org/2000/svg" width="106.824" height="138.078" viewBox="0 0 106.824 138.078">
  <g id="グループ_86" data-name="グループ 86" transform="translate(-1128.496 -530.046)">
    <g id="グループ_82" data-name="グループ 82">
      <path id="パス_172" data-name="パス 172" d="M1169.528,661.15l2.848-.024c.174-.232.4-.5.48-.5.274,0,1.016.618,1.018.827,0,.154-.24.277-.48.377-.034,1.32,0,3.486.011,5.235a1.023,1.023,0,0,1-1.07.965c-.429,0-.18-.437-1.006-.64a.182.182,0,0,1,.019-.363c.11,0,.616.061.869.059.308,0,.428-.1.447-.4.029-.583.008-1.726,0-2.551l-.022-2.573-6.74.057c-.028.561-.024,2.408-.021,2.771,0,.319.048,3,.051,3.364,0,.243-.152.365-.492.368a.27.27,0,0,1-.3-.306c-.01-1.121.063-5.52-.1-6.9a.151.151,0,0,1,.153-.156,2.841,2.841,0,0,1,.993.421l2.573-.022c.008-.352,0-.759-.01-1.166l-4.244.036c-.143,0-.242-.042-.244-.218s.1-.221.24-.222l4.245-.036c-.016-.494-.041-.934-.076-1.2-.012-.1.053-.154.152-.155.187,0,1.265.022,1.267.309,0,.241-.239.331-.579.411l.005.627,2.76-.023c.239-.365.566-.8.741-.8.231,0,1.073.672,1.075.958,0,.155-.185.266-.636.27l-3.936.033Zm-.005,4.663c.007.759.033,1.33.035,1.594,0,.231-.139.4-.48.4-.209,0-.276-.118-.278-.327,0-.308.015-.88.02-1.661l-2.365.02c-.143,0-.242-.042-.243-.218s.1-.221.24-.222l2.364-.02-.011-1.242-2.177.018c-.143,0-.242-.042-.244-.218s.1-.22.24-.222l4.091-.034c.206-.321.456-.664.6-.665.209,0,.863.619.865.861,0,.154-.2.233-.493.236l-1.737.014c-.01.132-.153.221-.438.256l.009.99,1.385-.011c.206-.31.457-.642.588-.654.209.009.852.619.854.85,0,.154-.185.233-.481.235Zm-1.873-3.041c-.078-.187-.168-.383-.258-.57-.123-.241.041-.451.327-.31.487.27.93.608.878,1.048a.475.475,0,0,1-.535.422C1167.787,663.32,1167.751,663.046,1167.65,662.772Zm1.9.533a4.11,4.11,0,0,0,.614-1.423c.022-.1.088-.177.2-.145.364.1.928.4.929.587.012.153-.152.21-.471.2a4.067,4.067,0,0,1-.948,1C1169.626,663.7,1169.438,663.549,1169.546,663.3Z" fill="#231815"/>
      <path id="パス_173" data-name="パス 173" d="M1185.594,661.6c.228-.343.532-.752.7-.754.219,0,1.027.662,1.029.926,0,.154-.173.255-.612.259l-8.962.075c-.143,0-.242-.042-.244-.218s.1-.221.24-.222l4.288-.036-.007-.869-2.815.024c-.143,0-.242-.042-.244-.218s.1-.221.24-.222l2.815-.024c0-.274,0-.549-.017-.8l-3.409.029c-.143,0-.243-.043-.244-.219s.1-.22.24-.221l3.4-.029c-.014-.374-.039-.692-.062-.9-.013-.1.053-.154.152-.155.187,0,1.287.022,1.289.308,0,.242-.239.332-.579.412l0,.33,2.133-.018c.217-.332.5-.719.664-.721.22,0,1.006.641,1.008.905,0,.153-.184.243-.591.246l-3.211.027.007.8,1.748-.015c.218-.321.489-.686.643-.687.209,0,.974.618.976.872,0,.153-.174.243-.57.246l-2.793.024.007.869Zm-1.464,1.222c.174-.233.436-.521.513-.521.275,0,1.017.618,1.019.827,0,.165-.24.288-.5.378,0,.9.019,2.3.019,3.486a.975.975,0,0,1-1.026.932c-.429,0-.169-.4-.907-.608-.243-.075-.2-.361.008-.363.1,0,.539.062.737.06.286,0,.4-.1.415-.366.009-.2.007-.462.015-.749l-3.815.033.026,1.715c0,.242-.163.353-.5.356a.278.278,0,0,1-.31-.3c0-.891.055-3.927-.076-5.091a.136.136,0,0,1,.153-.144,2.672,2.672,0,0,1,.971.387Zm-3.382.468c-.044.012-.088.023-.143.034-.009.176-.006.507-.015.859l3.815-.032-.007-.891Zm3.668,2.169-.005-.627,0-.242-3.815.032.005.649,0,.22Z" fill="#231815"/>
      <path id="パス_174" data-name="パス 174" d="M1199.011,666.071c.015-.727.031-1.529.028-1.87a34.136,34.136,0,0,0-.14-3.5c-.011-.11.043-.165.142-.166.649-.005,1.364.043,1.367.341,0,.2-.239.321-.591.39-.017.549.01,2.484.013,2.815,0,.571.057,2.913.06,3.265,0,.253-.194.365-.558.368a.3.3,0,0,1-.343-.328c0-.131.007-.462.014-.88l-6.817.058.018.869c0,.252-.195.375-.557.378a.3.3,0,0,1-.344-.316c0-.4.055-2.6.05-3.211a34.642,34.642,0,0,0-.14-3.518c-.011-.11.043-.165.142-.166.649-.005,1.364.043,1.367.341,0,.2-.24.321-.591.389-.017.55.01,2.5.013,2.826s.021,1.2.038,1.968l2.98-.025c.019-1.639.02-6.752-.12-7.763-.012-.109.053-.165.163-.166.2,0,1.364.022,1.367.329,0,.253-.25.354-.612.435l.06,7.158Z" fill="#231815"/>
    </g>
    <g id="グループ_83" data-name="グループ 83">
      <path id="パス_175" data-name="パス 175" d="M1164.394,568.133c-2.6.424-3.15.829-4.379,3.7-1.229,2.816-2.553,6.236-5.937,14.983a137.1,137.1,0,0,0-4.846,13.773c-.292,1.055-.841,1.31-1.492,1.315-1.6.014-3.066-1.126-3.077-2.379-.005-.652.341-1.106,1.088-1.764a11.252,11.252,0,0,0,3.326-3.736c1.035-2.113,1.771-3.873,2.016-4.527a2.928,2.928,0,0,0-.117-2.054c-2-5.7-4.76-11.837-6.294-15.432-1.126-2.747-1.581-3.344-4.341-3.672l-.011-1.353,10.123-.085.011,1.352c-2.3.371-2.549.874-1.882,2.723l4.965,12.286c1.374-3.469,3.331-9.048,4.357-12.214.586-1.91.23-2.458-2.68-2.835l-.011-1.352,9.17-.077Z" fill="#231815"/>
      <path id="パス_176" data-name="パス 176" d="M1199.385,587.334a57.636,57.636,0,0,0-7.653,1.818l-.032-3.859c-2.687,2.278-4.878,3.9-7.634,3.924-3.358.028-6.281-2-6.327-7.464l-.082-9.722c-.023-2.706-.426-3-1.681-3.243l-1.4-.239-.011-1.3a67.946,67.946,0,0,0,7.158-.962c-.137,1.6-.117,4.01-.089,7.317l.057,6.816c.037,4.409,2.353,5.642,4.608,5.623a7.911,7.911,0,0,0,5.391-2.451l-.1-11.675c-.023-2.706-.627-3.052-2.332-3.288l-1.6-.187-.011-1.3a70.937,70.937,0,0,0,7.859-.968l.141,16.787c.022,2.506.425,2.853,2.331,2.937l1.4.038Z" fill="#231815"/>
      <path id="パス_177" data-name="パス 177" d="M1211.872,588.381l-.012-1.4c3.154-.327,3.5-.581,3.475-3.988l-.087-10.323c-.026-3.107-.178-3.306-3.189-3.782l-.011-1.2a32.86,32.86,0,0,0,7.1-2.065l.053,6.314.093,11.024c.029,3.408.382,3.656,3.642,3.928l.011,1.4Zm4.979-27.654a2.743,2.743,0,0,1-2.678-2.634,2.706,2.706,0,0,1,2.683-2.779,2.617,2.617,0,0,1,2.579,2.734A2.665,2.665,0,0,1,1216.851,560.727Z" fill="#231815"/>
    </g>
    <g id="グループ_84" data-name="グループ 84">
      <path id="パス_178" data-name="パス 178" d="M1141.51,537.033l.019,2.213c.006.715.023,1.127.038,1.292.03.371.059.481.609.586.468.079.417.491.005.495-.317,0-.647-.022-1.155-.018s-.77.034-1.1.037c-.508,0-.511-.408,0-.495.412-.086.521-.155.545-.61.023-.494.021-.755.015-1.456l-.045-5.429c-.008-.908-.01-1.2-.041-1.512s-.113-.371-.829-.516c-.3-.025-.4-.409.065-.468a3.578,3.578,0,0,0,1.288-.423,1.007,1.007,0,0,1,.466-.183.2.2,0,0,1,.181.26,7.248,7.248,0,0,0-.1,1.623l.031,3.588c0,.055.028.081.109.012a7.184,7.184,0,0,1,1.066-.751,2.258,2.258,0,0,1,1.1-.311,1.971,1.971,0,0,1,1.97,2.182l.025,2.969c0,.151,0,.261.018.481.016.275.1.4.582.49s.512.49-.01.495c-.288,0-.715-.022-1.058-.019-.386,0-.592.033-1.127.037-.454,0-.512-.38-.073-.48.466-.114.575-.211.6-.514.013-.124.024-.4.017-1.237l-.014-1.691c-.012-1.4-.675-1.795-1.582-1.787a2,2,0,0,0-1.547.769C1141.508,536.745,1141.508,536.814,1141.51,537.033Z" fill="#231815"/>
      <path id="パス_179" data-name="パス 179" d="M1154.329,537.352c-.066-1.361-.894-1.739-1.568-1.733a.918.918,0,0,0-.931.475c-.135.263-.2.648-.321.952-.108.289-.424.374-.606-.037a1.4,1.4,0,0,1-.142-.617.474.474,0,0,1,.189-.414,5.548,5.548,0,0,1,2.383-1.092c1.635-.014,1.962,1.33,1.97,2.224s-.016,3.024-.014,3.189a.586.586,0,0,0,.043.274c.125.22.524.2.785.2.289-.016.292.355.005.522a2.457,2.457,0,0,1-1.3.341c-.439-.01-.5-.394-.531-1.081a3.769,3.769,0,0,1-2.341,1.16,1.563,1.563,0,0,1-1.485-1.691c-.01-1.265,1.785-1.981,3.338-1.994.137,0,.33.01.536.023Zm.012,1.415c0-.082-.042-.082-.1-.1a5.085,5.085,0,0,0-1.086-.046c-.949.022-1.577.467-1.571,1.182a.949.949,0,0,0,1.067,1.008,1.921,1.921,0,0,0,1.532-.81.575.575,0,0,0,.161-.5Z" fill="#231815"/>
      <path id="パス_180" data-name="パス 180" d="M1160.252,541.467c-.468,0-.485-.422-.046-.508.59-.129.671-.239.667-.817l-.027-3.189a3.72,3.72,0,0,0-.033-.618c-.015-.22-.057-.274-.608-.49-.249-.094-.265-.4.064-.454a3.431,3.431,0,0,0,1.165-.436.728.728,0,0,1,.343-.14c.137,0,.22.094.194.3a9.622,9.622,0,0,0-.095,1.76l.027,3.189c.005.646.061.755.7.874.426.065.43.5-.051.509-.344,0-.674-.022-1.169-.018C1160.994,541.433,1160.5,541.465,1160.252,541.467Zm1.805-9.225a.777.777,0,0,1-.762.845.726.726,0,0,1-.735-.764.782.782,0,0,1,.762-.831A.748.748,0,0,1,1162.057,532.242Z" fill="#231815"/>
      <path id="パス_181" data-name="パス 181" d="M1171.3,535.518a1.385,1.385,0,0,1-.187.73c-.04.111-.162.263-.3.264s-.151-.026-.359-.258a.948.948,0,0,0-.732-.338,1.566,1.566,0,0,0-1.176.67.29.29,0,0,0-.067.207l.022,2.707c0,.344.02.619.035.825.031.4.155.452.954.6.413.079.361.464-.024.467-.289,0-.77-.021-1.361-.016s-.948.036-1.278.039c-.371,0-.415-.382-.046-.481.577-.156.6-.211.628-.542a5.37,5.37,0,0,0,.034-.866l-.019-2.254a4.617,4.617,0,0,0-.048-.907c-.016-.206-.154-.3-.678-.461-.221-.081-.223-.315,0-.413a11.658,11.658,0,0,0,1.245-.643.441.441,0,0,1,.233-.084c.11,0,.18.108.209.259a7.091,7.091,0,0,1,.091,1.085c1.131-1.136,1.542-1.359,1.981-1.363A.8.8,0,0,1,1171.3,535.518Z" fill="#231815"/>
      <path id="パス_182" data-name="パス 182" d="M1184.506,537.675a1.721,1.721,0,0,1,1.291,1.529,2.089,2.089,0,0,1-1.084,1.837,2.917,2.917,0,0,1-1.481.411,2.692,2.692,0,0,1-1.115-.21c-.083-.041-.153-.068-.234.043-.15.18-.492.279-.5-.106,0-.481-.05-1-.125-1.689-.044-.426.381-.513.508-.1.028.082.141.383.2.535a1.539,1.539,0,0,0,1.574.907q1.2-.011,1.187-1.123a1.086,1.086,0,0,0-.737-1.012c-.4-.161-.924-.349-1.324-.5a1.68,1.68,0,0,1-.561-3.033,2.67,2.67,0,0,1,1.644-.536,2.79,2.79,0,0,1,.909.144c.1.026.11.012.151-.016.1-.069.163-.18.246-.235.163-.125.411-.113.371.107a10.3,10.3,0,0,0-.122,1.733c0,.453-.422.526-.494.155a2.346,2.346,0,0,0-.239-.7,1.243,1.243,0,0,0-1.187-.581c-.811.007-1.041.476-1.037.943.005.633.42.876.944,1.078Z" fill="#231815"/>
      <path id="パス_183" data-name="パス 183" d="M1193.591,537.021c-.067-1.36-.895-1.738-1.568-1.732a.918.918,0,0,0-.931.475c-.135.262-.2.648-.322.951s-.423.375-.6-.036a1.4,1.4,0,0,1-.143-.617.477.477,0,0,1,.189-.414,5.557,5.557,0,0,1,2.383-1.092c1.635-.014,1.963,1.33,1.971,2.224s-.016,3.024-.015,3.189a.6.6,0,0,0,.044.274c.125.219.524.2.785.2.289-.016.292.354,0,.522a2.452,2.452,0,0,1-1.3.341c-.44-.01-.5-.394-.531-1.082a3.772,3.772,0,0,1-2.341,1.161,1.564,1.564,0,0,1-1.485-1.692c-.011-1.264,1.784-1.98,3.338-1.994.137,0,.329.011.536.023Zm.012,1.416c0-.083-.043-.082-.1-.1a5.1,5.1,0,0,0-1.087-.046c-.948.021-1.576.467-1.57,1.182a.949.949,0,0,0,1.067,1.008,1.925,1.925,0,0,0,1.532-.811.571.571,0,0,0,.161-.5Z" fill="#231815"/>
      <path id="パス_184" data-name="パス 184" d="M1201.888,540.622c.413.065.389.491-.051.495-.275,0-.77-.021-1.2-.018-.591.005-.838.035-1.292.039-.4,0-.457-.423-.045-.495.59-.115.644-.252.7-.556a12.972,12.972,0,0,0,.028-1.566l-.044-5.237c-.009-1.059-.011-1.333-.041-1.608-.058-.371-.169-.439-.844-.584-.3-.066-.319-.382.011-.454a5.942,5.942,0,0,0,1.466-.452.922.922,0,0,1,.343-.14c.165,0,.248.135.168.383a6,6,0,0,0-.071,1.265l.059,7.024c.007.921.023,1.168.038,1.347C1201.143,540.381,1201.227,540.5,1201.888,540.622Z" fill="#231815"/>
      <path id="パス_185" data-name="パス 185" d="M1212.229,537.47a3.608,3.608,0,0,1-.791,2.466,3.676,3.676,0,0,1-2.751,1.343,3.036,3.036,0,0,1-2.941-3.219,3.276,3.276,0,0,1,1.146-2.69,3.736,3.736,0,0,1,2.424-.955A2.984,2.984,0,0,1,1212.229,537.47Zm-3.5-2.35c-1.539.013-1.856,1.515-1.848,2.491.012,1.47.671,3,2.375,2.99,1.1-.01,1.834-1.033,1.821-2.6C1211.068,536.778,1210.449,535.106,1208.731,535.12Z" fill="#231815"/>
      <path id="パス_186" data-name="パス 186" d="M1216.966,536.22c0-.413-.073-.536-.707-.736a.223.223,0,0,1,.023-.427,4.838,4.838,0,0,0,1.1-.559.93.93,0,0,1,.356-.154c.123,0,.179.067.208.218a4.771,4.771,0,0,1,.076.962,9.931,9.931,0,0,1,1.134-.834,2.145,2.145,0,0,1,1.152-.367c1.155-.01,1.918.822,1.931,2.361l.026,3.161c0,.44.087.494.692.6.427.065.417.492-.037.5-.439,0-.811-.021-1.278-.017-.358,0-.893.035-1.154.037-.495,0-.5-.422-.074-.494.728-.144.768-.281.778-.721.012-.276.037-.592.025-1.925l-.007-.921a1.469,1.469,0,0,0-1.568-1.664,2.211,2.211,0,0,0-1.546.852.462.462,0,0,0-.093.358l.019,2.336a7.31,7.31,0,0,0,.051,1.1c.017.386.073.481.761.6.4.065.375.492-.065.5-.3,0-.756-.022-1.25-.018-.454,0-.839.035-1.2.038-.467,0-.457-.422-.046-.494.618-.129.658-.226.683-.625a9.724,9.724,0,0,0,.03-1.292Z" fill="#231815"/>
    </g>
    <g id="グループ_85" data-name="グループ 85">
      <path id="パス_187" data-name="パス 187" d="M1194.219,630.535a32.3,32.3,0,0,1-8.346-1.187l3.741-1.539a23.626,23.626,0,0,0,4.647.508,36.766,36.766,0,0,0,8.3-1.341l2.888,1.632A40.49,40.49,0,0,1,1194.219,630.535Z" fill="#231815"/>
      <path id="パス_188" data-name="パス 188" d="M1137.829,639.694a1.311,1.311,0,0,1-.706-.2.966.966,0,0,1-.269-1.463c4.5-5.443,7.068-7.782,11.35-10.67l2.494,1.042a51.24,51.24,0,0,0-11.9,10.855A1.265,1.265,0,0,1,1137.829,639.694Z" fill="#231815"/>
      <path id="パス_189" data-name="パス 189" d="M1175.363,625.247c-3.957-1.164-6.787-1.924-9.778-1.917a23.975,23.975,0,0,0-7.52,1.4l-3.841-1.4a30.717,30.717,0,0,1,11.128-2.094,31.25,31.25,0,0,1,13.6,3.056Z" fill="#231815"/>
      <path id="パス_190" data-name="パス 190" d="M1211.6,624.125a61.5,61.5,0,0,0,10.92-6.37,72.89,72.89,0,0,0,9.736-8.2l3.064-.008a73.458,73.458,0,0,1-11.294,9.842,64.4,64.4,0,0,1-10.326,6.126Z" fill="#231815"/>
      <path id="パス_191" data-name="パス 191" d="M1224.388,636.311c-5.68.014-8.772-2.786-11.762-5.495a35.248,35.248,0,0,0-3.8-3.123l-3.381-1.779a19,19,0,0,0-6.941-1.16,40.44,40.44,0,0,0-9.408,1.3l-8.05,2.348a45.05,45.05,0,0,1-28.359-1.315l-3.11-1.291a56.581,56.581,0,0,1-8.121-4.563,67.957,67.957,0,0,1-12.96-11.427l3.1-.008a61.351,61.351,0,0,0,20.768,14.791l3.65,1.336a42.355,42.355,0,0,0,13.022,2.052,41.906,41.906,0,0,0,6.667-.555l8.128-2.1a63.356,63.356,0,0,1,9.714-2.256,36.731,36.731,0,0,1,4.965-.375,20.523,20.523,0,0,1,10.327,2.439l2.7,1.8c1,.78,1.917,1.608,2.8,2.41,2.9,2.624,5.387,4.879,10.052,4.867a17.563,17.563,0,0,0,2.378-.178,1.327,1.327,0,0,1,.188-.014,1.159,1.159,0,0,1,1.187.883.944.944,0,0,1-.213.78,1.23,1.23,0,0,1-.784.42,20.176,20.176,0,0,1-2.758.206Z" fill="#231815"/>
    </g>
  </g>
</svg>
