<svg xmlns="http://www.w3.org/2000/svg" width="322" height="53" viewBox="0 0 322 53">
  <g id="グループ_221" data-name="グループ 221" transform="translate(-468.861 -4762)">
    <rect id="長方形_47" data-name="長方形 47" width="321" height="52" transform="translate(469.361 4762.5)" fill="none" stroke="#000" stroke-miterlimit="10" stroke-width="1"/>
    <g id="グループ_220" data-name="グループ 220">
      <g id="グループ_219" data-name="グループ 219">
        <g id="グループ_218" data-name="グループ 218">
          <path id="パス_355" data-name="パス 355" d="M562.764,4784.723c-1.494.143-1.639.234-1.639,1.746v7.221c0,1.512.163,1.566,1.639,1.728v.5h-4.825v-.5c1.494-.18,1.639-.216,1.639-1.728v-3.6h-6.159v3.6c0,1.494.145,1.548,1.621,1.728v.5h-4.807v-.5c1.458-.162,1.62-.216,1.62-1.728v-7.221c0-1.512-.162-1.6-1.62-1.746v-.5h4.807v.5c-1.44.126-1.621.252-1.621,1.746v2.863h6.159v-2.863c0-1.494-.2-1.62-1.639-1.746v-.5h4.825Z" fill="#fff"/>
          <path id="パス_356" data-name="パス 356" d="M572.266,4783.966a5.789,5.789,0,0,1,5.834,5.942c0,3.872-2.629,6.285-5.942,6.285a5.861,5.861,0,0,1-5.978-6.015A6,6,0,0,1,572.266,4783.966Zm-.36.667c-2.017,0-3.853,1.692-3.853,5.06,0,3.348,1.836,5.815,4.393,5.815,2.179,0,3.817-1.62,3.817-5.1C576.263,4786.631,574.265,4784.633,571.906,4784.633Z" fill="#fff"/>
          <path id="パス_357" data-name="パス 357" d="M591.041,4787.045a6.836,6.836,0,0,0-.577-1.494c-.288-.486-.467-.612-1.458-.612h-1.8v8.768c0,1.4.144,1.6,1.854,1.711v.5h-5.239v-.5c1.674-.108,1.818-.288,1.818-1.711v-8.768H584c-.99,0-1.278.108-1.583.648a8.182,8.182,0,0,0-.595,1.458h-.54c.108-1.1.216-2.232.27-3.24h.414c.27.432.468.414.972.414h7.131a.9.9,0,0,0,.918-.414h.431c0,.846.073,2.143.163,3.186Z" fill="#fff"/>
          <path id="パス_358" data-name="パス 358" d="M599.392,4784.219a5.082,5.082,0,0,1,3.042.773,3.044,3.044,0,0,1,1.189,2.558,3.73,3.73,0,0,1-3.961,3.691,3.028,3.028,0,0,1-.487-.037l-1.242-.324v2.81c0,1.512.126,1.548,1.782,1.728v.5h-4.968v-.5c1.547-.162,1.62-.27,1.62-1.764V4786.5c0-1.6-.2-1.639-1.62-1.782v-.5Zm-1.459,6.031a3.251,3.251,0,0,0,1.315.235,2.828,2.828,0,0,0-.109-5.654,1.61,1.61,0,0,0-1.008.216c-.144.126-.2.342-.2.828Z" fill="#fff"/>
          <path id="パス_359" data-name="パス 359" d="M616.259,4793.059c-.108.469-.594,2.323-.774,2.863h-8.751v-.5c1.675-.126,1.8-.288,1.8-1.764v-7.113c0-1.6-.2-1.692-1.549-1.818v-.5h5.51c1.692,0,2.4-.019,2.611-.036.018.45.09,1.8.162,2.755l-.54.09a5.982,5.982,0,0,0-.541-1.369c-.288-.594-.7-.72-1.782-.72H610.7c-.559,0-.595.053-.595.576v3.979h2c1.35,0,1.441-.27,1.656-1.5h.559v3.71h-.559c-.234-1.3-.378-1.476-1.674-1.476H610.1v3.583c0,1.259.4,1.368,1.3,1.386h1.674c1.1,0,1.278-.162,1.675-.63a7.765,7.765,0,0,0,.972-1.657Z" fill="#fff"/>
          <path id="パス_360" data-name="パス 360" d="M623.961,4784.219a5.086,5.086,0,0,1,3.043.773,3.044,3.044,0,0,1,1.188,2.558,3.73,3.73,0,0,1-3.961,3.691,3.014,3.014,0,0,1-.486-.037l-1.243-.324v2.81c0,1.512.126,1.548,1.783,1.728v.5h-4.969v-.5c1.548-.162,1.62-.27,1.62-1.764V4786.5c0-1.6-.2-1.639-1.62-1.782v-.5Zm-1.459,6.031a3.254,3.254,0,0,0,1.315.235,2.828,2.828,0,0,0-.109-5.654,1.6,1.6,0,0,0-1.007.216c-.145.126-.2.342-.2.828Z" fill="#fff"/>
          <path id="パス_361" data-name="パス 361" d="M636.129,4784.219a5.086,5.086,0,0,1,3.043.773,3.044,3.044,0,0,1,1.188,2.558,3.73,3.73,0,0,1-3.961,3.691,3.012,3.012,0,0,1-.486-.037l-1.243-.324v2.81c0,1.512.126,1.548,1.783,1.728v.5h-4.969v-.5c1.548-.162,1.62-.27,1.62-1.764V4786.5c0-1.6-.2-1.639-1.62-1.782v-.5Zm-1.459,6.031a3.254,3.254,0,0,0,1.315.235,2.828,2.828,0,0,0-.109-5.654,1.6,1.6,0,0,0-1.007.216c-.145.126-.2.342-.2.828Z" fill="#fff"/>
          <path id="パス_362" data-name="パス 362" d="M653,4793.059c-.108.469-.595,2.323-.774,2.863h-8.751v-.5c1.675-.126,1.8-.288,1.8-1.764v-7.113c0-1.6-.2-1.692-1.548-1.818v-.5h5.509c1.693,0,2.4-.019,2.612-.036.017.45.09,1.8.162,2.755l-.54.09a5.982,5.982,0,0,0-.541-1.369c-.288-.594-.7-.72-1.782-.72h-1.71c-.559,0-.595.053-.595.576v3.979h2c1.35,0,1.44-.27,1.656-1.5h.558v3.71h-.558c-.234-1.3-.378-1.476-1.675-1.476h-1.98v3.583c0,1.259.4,1.368,1.3,1.386h1.674c1.1,0,1.278-.162,1.674-.63a7.764,7.764,0,0,0,.973-1.657Z" fill="#fff"/>
          <path id="パス_363" data-name="パス 363" d="M666.73,4796.066c-.234,0-.431-.018-.666-.035a3.2,3.2,0,0,1-2.808-1.549c-.666-.918-1.315-2.053-1.891-2.971-.36-.576-.594-.685-1.512-.685h-.63v2.828c0,1.53.2,1.62,1.638,1.764v.5h-4.807v-.5c1.494-.162,1.62-.234,1.62-1.764v-7.185c0-1.53-.2-1.584-1.62-1.746v-.5h4.591a5.077,5.077,0,0,1,2.88.612,2.689,2.689,0,0,1,1.225,2.376,3.338,3.338,0,0,1-2.322,3.1c.323.559,1.1,1.765,1.637,2.575a16.719,16.719,0,0,0,1.423,1.855,2.6,2.6,0,0,0,1.315.828Zm-6.643-5.852a2.9,2.9,0,0,0,1.98-.521,2.531,2.531,0,0,0,.991-2.215,2.425,2.425,0,0,0-2.665-2.629,1.65,1.65,0,0,0-.955.18c-.162.126-.215.306-.215.774v4.411Z" fill="#fff"/>
          <path id="パス_364" data-name="パス 364" d="M681.038,4789.584c1.729.288,3.133,1.116,3.133,2.864a3.111,3.111,0,0,1-1.746,2.772,5.954,5.954,0,0,1-3.115.7h-4.429v-.5c1.53-.144,1.62-.306,1.62-1.728v-7.221c0-1.494-.162-1.62-1.62-1.746v-.5H679.6a4.788,4.788,0,0,1,2.773.63,2.353,2.353,0,0,1,1.063,2.017A2.866,2.866,0,0,1,681.038,4789.584Zm-2.07-.216c1.98,0,2.791-.793,2.791-2.268,0-1.261-.775-2.234-2.5-2.234a1.876,1.876,0,0,0-1.008.181c-.144.108-.2.306-.2.882v3.439Zm-.918,4.286c0,1.3.3,1.62,1.584,1.62a2.53,2.53,0,0,0,2.773-2.647c0-1.837-1.3-2.629-3.493-2.629h-.864Z" fill="#fff"/>
          <path id="パス_365" data-name="パス 365" d="M693.836,4794.392a4.1,4.1,0,0,1-2.989,1.746,3.6,3.6,0,0,1-3.529-3.871,4.623,4.623,0,0,1,1.17-3.151,3.693,3.693,0,0,1,2.683-1.314,2.809,2.809,0,0,1,2.755,2.791c-.018.359-.072.522-.361.594-.359.072-2.664.234-4.806.305-.055,2.414,1.422,3.4,2.7,3.4a3.047,3.047,0,0,0,2.089-.918Zm-3.1-5.906c-.828,0-1.638.774-1.89,2.233,1.007,0,2.016,0,3.079-.055.324,0,.431-.09.431-.36A1.673,1.673,0,0,0,690.739,4788.486Z" fill="#fff"/>
          <path id="パス_366" data-name="パス 366" d="M702.583,4796.138a1.32,1.32,0,0,1-.847-.342,1.7,1.7,0,0,1-.431-.81,5.666,5.666,0,0,1-2.161,1.152,2.209,2.209,0,0,1-2.2-2.215,1.833,1.833,0,0,1,1.477-1.8,14.184,14.184,0,0,0,2.845-1.171v-.359c0-1.279-.649-2.018-1.585-2.018a1.042,1.042,0,0,0-.846.416,3.842,3.842,0,0,0-.486,1.169.5.5,0,0,1-.523.414.866.866,0,0,1-.792-.791c0-.252.234-.469.6-.721a7.553,7.553,0,0,1,2.593-1.26,2.367,2.367,0,0,1,2.43,2.574v3.476c0,.828.306,1.08.63,1.08a1.439,1.439,0,0,0,.649-.2l.179.5Zm-1.314-4.555c-.4.2-1.261.576-1.675.756-.684.306-1.1.649-1.1,1.315a1.309,1.309,0,0,0,1.3,1.386,2.4,2.4,0,0,0,1.477-.648Z" fill="#fff"/>
          <path id="パス_367" data-name="パス 367" d="M715.383,4795.508a20.79,20.79,0,0,0-2.755.63v-1.386a4.441,4.441,0,0,1-2.755,1.386c-1.206,0-2.25-.738-2.25-2.7v-3.493c0-.973-.144-1.08-.595-1.171l-.5-.09v-.468a24.677,24.677,0,0,0,2.576-.324c-.055.576-.055,1.44-.055,2.629v2.448c0,1.585.828,2.035,1.639,2.035a2.844,2.844,0,0,0,1.944-.864v-4.2c0-.973-.216-1.1-.828-1.189l-.576-.072v-.468a25.766,25.766,0,0,0,2.827-.324v6.031c0,.9.143,1.026.828,1.063l.5.018Z" fill="#fff"/>
          <path id="パス_368" data-name="パス 368" d="M721.609,4795.9a1.819,1.819,0,0,1-.774.233c-1.152,0-1.765-.7-1.765-2.143v-5.239h-1.242l-.071-.216.485-.522h.828V4786.5c.343-.36.866-.828,1.207-1.188l.27.036c-.035.757-.054,1.8-.054,2.665h2.053a.561.561,0,0,1-.109.738h-1.944v4.61c0,1.458.576,1.728,1.044,1.728a2.574,2.574,0,0,0,1.1-.288l.162.468Z" fill="#fff"/>
          <path id="パス_369" data-name="パス 369" d="M733.238,4788.5c-.936.144-1.134.288-1.584,1.315-.45,1.007-.936,2.232-2.178,5.365a49.278,49.278,0,0,0-1.784,4.933c-.107.378-.3.468-.54.468a1.043,1.043,0,0,1-1.1-.864c0-.233.126-.4.4-.63a4.038,4.038,0,0,0,1.206-1.332c.379-.757.649-1.387.739-1.621a1.055,1.055,0,0,0-.036-.738c-.7-2.053-1.674-4.267-2.214-5.564-.4-.99-.559-1.206-1.549-1.332v-.486h3.636v.486c-.828.126-.918.306-.683.972l1.746,4.43c.5-1.243,1.225-3.242,1.6-4.375.216-.685.09-.883-.954-1.027v-.486h3.295Z" fill="#fff"/>
        </g>
      </g>
      <path id="パス_370" data-name="パス 370" d="M532,4796.786c-1.057,0-2.117.044-3.171-.009a5.063,5.063,0,0,1-4.744-4.269,6.247,6.247,0,0,1-.083-.995c-.008-1.821,0-3.641,0-5.461a5.194,5.194,0,0,1,5.251-5.247h5.541a5.14,5.14,0,0,1,5.2,5.187q0,2.811,0,5.622a5.079,5.079,0,0,1-5.145,5.186c-.95.012-1.9,0-2.851,0Zm-4.094-12.565-.017.128c.791-.059.843.479.9,1.036a3.759,3.759,0,0,0,.421-.511,3.847,3.847,0,0,1,2.228-1.609,2.082,2.082,0,0,1,2.569,1.364,4.277,4.277,0,0,1,.091,2.492,2.783,2.783,0,0,1-.258.585c-.108.207-.253.243-.5.165a2.584,2.584,0,0,0-1.014-.156.769.769,0,0,0-.515.451c-.1.283.153.491.424.519a5.849,5.849,0,0,0,1.191,0c.234-.025.392,0,.5.214a5.112,5.112,0,0,1,.323.687,5.948,5.948,0,0,1-.024,3.483,1.822,1.822,0,0,1-1.513,1.478,2.565,2.565,0,0,1-2.325-.848,2.518,2.518,0,0,0,.492-1.764c-.011-.521-.059-1.042-.1-1.562a9.84,9.84,0,0,1,.517-4.271c.038-.107.062-.219.121-.431l-.842.431-.484-.742a3.253,3.253,0,0,0-.151.453,24.969,24.969,0,0,0-.4,2.851,28.138,28.138,0,0,0,.189,2.92,2.356,2.356,0,0,1-.1,1.386,6.119,6.119,0,0,0-.926-.426.851.851,0,0,0-.634,1.577,1.882,1.882,0,0,0,1.512.17.62.62,0,0,1,.435.03,4.505,4.505,0,0,0,3.946.347,3.468,3.468,0,0,0,.765-6.083l-.361-.239a2.685,2.685,0,0,0,1.254-1.867,3.183,3.183,0,0,0-2.425-3.609,5.639,5.639,0,0,0-4.152.584A12.184,12.184,0,0,0,527.906,4784.221Z" fill="#fff"/>
    </g>
  </g>
</svg>
