<svg xmlns="http://www.w3.org/2000/svg" width="226.779" height="59.064" viewBox="0 0 226.779 59.064">
  <g id="グループ_217" data-name="グループ 217" transform="translate(-526.735 -3427.52)">
    <rect id="長方形_46" data-name="長方形 46" width="225.541" height="57.131" transform="translate(527.237 3428.951) rotate(-0.236)" fill="none" stroke="#231815" stroke-miterlimit="10" stroke-width="1"/>
    <g id="グループ_215" data-name="グループ 215">
      <g id="グループ_214" data-name="グループ 214">
        <g id="グループ_205" data-name="グループ 205">
          <path id="パス_343" data-name="パス 343" d="M605.484,3465.783l0-.588c1.322-.132,1.469-.236,1.463-1.664l-.018-4.326c-.006-1.3-.069-1.385-1.33-1.591l0-.5a13.6,13.6,0,0,0,2.979-.851c0,.883.007,1.763.01,2.646l.019,4.619c.006,1.428.153,1.532,1.519,1.652l0,.588Zm2.137-11.577a1.152,1.152,0,0,1-1.119-1.109,1.134,1.134,0,0,1,1.13-1.159,1.1,1.1,0,0,1,1.076,1.15A1.118,1.118,0,0,1,607.621,3454.206Z" fill="#fff"/>
        </g>
        <g id="グループ_206" data-name="グループ 206">
          <path id="パス_344" data-name="パス 344" d="M619.322,3465.727l0-.588c1.217-.132,1.343-.28,1.337-1.707l-.015-3.464c-.006-1.47-.535-2.454-1.921-2.448a3.663,3.663,0,0,0-2.326,1.1l.021,4.912c.005,1.449.131,1.49,1.371,1.612l0,.587-4.536.019,0-.588c1.386-.152,1.511-.236,1.506-1.623l-.018-4.324c-.005-1.365-.153-1.428-1.287-1.612l0-.546a11.933,11.933,0,0,0,2.935-.852c0,.483.005,1.155.007,1.659.419-.3.88-.613,1.424-.972a3.226,3.226,0,0,1,1.74-.637c1.68-.007,2.735,1.227,2.743,3.265l.017,3.988c.006,1.428.132,1.49,1.35,1.611l0,.588Z" fill="#fff"/>
        </g>
        <g id="グループ_207" data-name="グループ 207">
          <path id="パス_345" data-name="パス 345" d="M632.461,3458.953c-.382-1.216-.932-2.054-2.212-2.049a1.273,1.273,0,0,0-1.3,1.37c0,.9.614,1.321,1.792,1.862,1.809.854,2.714,1.479,2.72,2.866.008,1.932-1.752,2.925-3.411,2.932a5.5,5.5,0,0,1-2.5-.578c-.107-.609-.3-1.762-.387-2.456l.608-.106c.384,1.342,1.123,2.431,2.593,2.425a1.4,1.4,0,0,0,1.463-1.434c0-.944-.573-1.426-1.688-1.967-1.472-.708-2.672-1.375-2.678-2.886-.006-1.533,1.29-2.713,3.264-2.722a10.817,10.817,0,0,1,2.018.265c.064.5.216,1.826.323,2.329Z" fill="#fff"/>
        </g>
        <g id="グループ_208" data-name="グループ 208">
          <path id="パス_346" data-name="パス 346" d="M641.056,3465.615a2.113,2.113,0,0,1-.9.278c-1.344,0-2.061-.811-2.068-2.491l-.025-6.11-1.448.006-.085-.251.564-.611.966,0-.008-1.764c.4-.421,1-.971,1.4-1.393l.314.042c-.038.881-.054,2.1-.049,3.108l2.392-.01a.655.655,0,0,1-.122.861l-2.267.009.023,5.375c.006,1.7.679,2.014,1.224,2.011a2.99,2.99,0,0,0,1.28-.341l.191.545Z" fill="#fff"/>
        </g>
        <g id="グループ_209" data-name="グループ 209">
          <path id="パス_347" data-name="パス 347" d="M652.166,3465.843a1.536,1.536,0,0,1-.987-.4,1.949,1.949,0,0,1-.508-.943,6.615,6.615,0,0,1-2.515,1.354,2.573,2.573,0,0,1-2.572-2.571,2.136,2.136,0,0,1,1.714-2.107,16.538,16.538,0,0,0,3.31-1.379l0-.42c-.005-1.49-.765-2.348-1.857-2.344a1.219,1.219,0,0,0-.984.486,4.526,4.526,0,0,0-.561,1.369.584.584,0,0,1-.607.484,1.01,1.01,0,0,1-.928-.92c0-.293.271-.546.69-.843a8.853,8.853,0,0,1,3.017-1.48,2.755,2.755,0,0,1,2.847,2.99l.016,4.053c0,.965.364,1.258.74,1.257a1.683,1.683,0,0,0,.755-.236l.213.587Zm-1.555-5.307c-.46.234-1.465.679-1.948.892-.8.359-1.277.76-1.274,1.537a1.527,1.527,0,0,0,1.518,1.61,2.8,2.8,0,0,0,1.718-.763C650.621,3462.825,650.615,3461.523,650.611,3460.536Z" fill="#fff"/>
        </g>
        <g id="グループ_210" data-name="グループ 210">
          <path id="パス_348" data-name="パス 348" d="M659.881,3462.493a1.54,1.54,0,0,0-.689,1.053c0,.378.361.8,1.306.793.776,0,1.658-.027,2.352-.03,1.343-.006,3.066.427,3.075,2.506.009,2.184-2.565,4.251-5.358,4.263-2.372.01-3.658-1.37-3.706-2.609a1.65,1.65,0,0,1,.521-1.2,19.229,19.229,0,0,1,1.715-1.519,2.744,2.744,0,0,1-1.58-1.129,1.891,1.891,0,0,1-.255-.9,4.428,4.428,0,0,0,1.925-1.457Zm1.009.206c-1.953.008-3.575-1.182-3.582-3.155a3.618,3.618,0,0,1,3.764-3.523,4.308,4.308,0,0,1,2.018.517,14.208,14.208,0,0,0,2.812-.326l.127.188a2.629,2.629,0,0,1-.771,1.117c-.316,0-1.009-.08-1.3-.1a3.236,3.236,0,0,1,.617,1.908A3.4,3.4,0,0,1,660.89,3462.7Zm.495,3.106a2.654,2.654,0,0,0-1.866.449,2.413,2.413,0,0,0-1,1.725c0,1.155,1.2,2.01,2.821,2,1.994-.007,3.125-1.041,3.119-2.384a1.576,1.576,0,0,0-.93-1.529A5.64,5.64,0,0,0,661.385,3465.8Zm-.52-9.111c-.945,0-1.781.869-1.774,2.528s.851,2.809,2.007,2.8c.923-.046,1.739-.825,1.732-2.526C662.823,3457.862,662.041,3456.689,660.865,3456.694Z" fill="#fff"/>
        </g>
        <g id="グループ_211" data-name="グループ 211">
          <path id="パス_349" data-name="パス 349" d="M673.71,3465.5l-4.828.019,0-.587c1.321-.131,1.447-.237,1.441-1.6l-.017-4.367c-.006-1.386-.09-1.448-1.309-1.59l0-.525a11.656,11.656,0,0,0,2.957-.873l.01,2.309c.729-1.095,1.606-2.252,2.656-2.257a1.085,1.085,0,0,1,1.223,1,1.406,1.406,0,0,1-.709,1.157.413.413,0,0,1-.547-.04,1.327,1.327,0,0,0-.946-.52c-.442,0-1.216.655-1.673,1.727l.016,3.948c.006,1.386.111,1.491,1.728,1.61Z" fill="#fff"/>
        </g>
        <g id="グループ_212" data-name="グループ 212">
          <path id="パス_350" data-name="パス 350" d="M685.533,3465.705a1.54,1.54,0,0,1-.988-.394,1.978,1.978,0,0,1-.508-.944,6.6,6.6,0,0,1-2.515,1.355,2.573,2.573,0,0,1-2.57-2.572,2.134,2.134,0,0,1,1.712-2.106,16.607,16.607,0,0,0,3.313-1.379l0-.42c-.006-1.49-.766-2.349-1.858-2.345a1.219,1.219,0,0,0-.985.488,4.519,4.519,0,0,0-.562,1.367.584.584,0,0,1-.606.485,1.011,1.011,0,0,1-.928-.921c0-.293.271-.546.69-.841a8.811,8.811,0,0,1,3.016-1.482,2.758,2.758,0,0,1,2.848,2.99l.016,4.053c0,.965.363,1.258.742,1.257a1.685,1.685,0,0,0,.755-.234l.21.586Zm-1.554-5.306c-.461.234-1.467.678-1.949.891-.8.359-1.278.761-1.275,1.537a1.529,1.529,0,0,0,1.518,1.611,2.792,2.792,0,0,0,1.72-.763C683.989,3462.688,683.983,3461.387,683.979,3460.4Z" fill="#fff"/>
        </g>
        <g id="グループ_213" data-name="グループ 213">
          <path id="パス_351" data-name="パス 351" d="M701.827,3465.386l0-.588c1.238-.131,1.385-.215,1.379-1.685l-.015-3.506c-.005-1.491-.513-2.433-1.815-2.428a3.845,3.845,0,0,0-2.327,1.1,8.485,8.485,0,0,1,.067.9l.017,4.073c.006,1.323.194,1.427,1.35,1.548l0,.588-4.493.018,0-.588c1.3-.131,1.49-.216,1.484-1.6l-.015-3.612c-.007-1.553-.492-2.412-1.773-2.407a4.014,4.014,0,0,0-2.3,1.1l.02,4.933c.006,1.386.153,1.469,1.351,1.59l0,.588-4.515.019,0-.588c1.385-.131,1.511-.216,1.505-1.6l-.017-4.346c-.006-1.343-.09-1.427-1.267-1.633l0-.525a11.257,11.257,0,0,0,2.915-.851c0,.5.005,1.2.007,1.7a14.7,14.7,0,0,1,1.549-1.1,2.851,2.851,0,0,1,1.656-.552,2.459,2.459,0,0,1,2.3,1.712c.586-.463,1.131-.823,1.654-1.182a3.187,3.187,0,0,1,1.656-.552c1.637-.007,2.65,1.165,2.659,3.222l.016,4.052c.006,1.407.133,1.469,1.33,1.59l0,.588Z" fill="#fff"/>
        </g>
      </g>
    </g>
    <g id="グループ_216" data-name="グループ 216">
      <path id="パス_352" data-name="パス 352" d="M583.5,3466.992a4.663,4.663,0,0,1-4.657-4.658v-7.584a4.662,4.662,0,0,1,4.657-4.658h7.293a4.663,4.663,0,0,1,4.658,4.658v7.584a4.664,4.664,0,0,1-4.658,4.658Zm0-15.695a3.457,3.457,0,0,0-3.452,3.453v7.584a3.456,3.456,0,0,0,3.452,3.452h7.293a3.455,3.455,0,0,0,3.452-3.452v-7.584a3.456,3.456,0,0,0-3.452-3.453Z" fill="#fff"/>
      <path id="パス_353" data-name="パス 353" d="M587.144,3463.034a4.492,4.492,0,1,0-4.493-4.492A4.5,4.5,0,0,0,587.144,3463.034Zm0-7.584a3.092,3.092,0,1,1-3.092,3.092A3.1,3.1,0,0,1,587.144,3455.45Z" fill="#fff"/>
      <path id="パス_354" data-name="パス 354" d="M591.767,3454.925a1.006,1.006,0,1,0-1.006-1.007A1.007,1.007,0,0,0,591.767,3454.925Z" fill="#fff"/>
    </g>
  </g>
</svg>
