<svg xmlns="http://www.w3.org/2000/svg" width="322" height="53" viewBox="0 0 322 53">
  <g id="グループ_225" data-name="グループ 225" transform="translate(-468.861 -4832)">
    <rect id="長方形_48" data-name="長方形 48" width="321" height="52" transform="translate(469.361 4832.5)" fill="none" stroke="#000" stroke-miterlimit="10" stroke-width="1"/>
    <g id="グループ_223" data-name="グループ 223">
      <g id="グループ_222" data-name="グループ 222">
        <path id="パス_371" data-name="パス 371" d="M583.5,4853.115c2.766,0,3.774,3.061,3.774,5.817,0,2.628-1.008,5.833-3.774,5.833-2.809,0-3.821-3.016-3.821-5.816C579.679,4856.313,580.715,4853.115,583.5,4853.115Zm-.006.656c-1.593,0-1.985,2.637-1.985,5.135s.482,5.2,1.994,5.2c1.546,0,1.953-2.666,1.953-5.183C585.456,4856.386,585.022,4853.771,583.494,4853.771Z" fill="#fff"/>
        <path id="パス_372" data-name="パス 372" d="M597.885,4862.051c-.243.839-.555,1.815-.736,2.5h-6.875v-.442c.983-.965,2.058-2.028,2.946-3.054,1.173-1.365,2.169-2.767,2.169-4.3,0-1.456-.763-2.313-2.061-2.313a3.128,3.128,0,0,0-2.478,1.661l-.437-.391,1.049-1.5a3.322,3.322,0,0,1,2.519-1.087,2.981,2.981,0,0,1,3.106,3.135c0,1.508-.555,2.578-2.289,4.315-.76.781-1.872,1.85-2.624,2.556h3.365c1,0,1.258-.087,1.88-1.222Z" fill="#fff"/>
        <path id="パス_373" data-name="パス 373" d="M604.1,4857.738a2.648,2.648,0,0,1,1.159-.312,3.2,3.2,0,0,1,3.248,3.341,3.844,3.844,0,0,1-3.786,4c-2.157,0-3.807-1.744-3.807-4.521a7.32,7.32,0,0,1,4.968-6.752,15.232,15.232,0,0,1,2.152-.484l.107.616a10.6,10.6,0,0,0-1.956.619,5.658,5.658,0,0,0-3.239,4.075Zm.374.762a3.512,3.512,0,0,0-1.64.449,6.435,6.435,0,0,0-.111,1.267c0,2.273.836,3.878,2.3,3.878,1.352,0,1.756-1.463,1.756-2.656C606.785,4859.907,606.042,4858.5,604.478,4858.5Z" fill="#fff"/>
        <path id="パス_374" data-name="パス 374" d="M615.962,4861.033H611.75l.129-1.154h4.212Z" fill="#fff"/>
        <path id="パス_375" data-name="パス 375" d="M623.19,4853.115c2.766,0,3.773,3.061,3.773,5.817,0,2.628-1.007,5.833-3.773,5.833-2.81,0-3.821-3.016-3.821-5.816C619.369,4856.313,620.405,4853.115,623.19,4853.115Zm-.007.656c-1.593,0-1.984,2.637-1.984,5.135s.481,5.2,1.994,5.2c1.546,0,1.952-2.666,1.952-5.183C625.145,4856.386,624.711,4853.771,623.183,4853.771Z" fill="#fff"/>
        <path id="パス_376" data-name="パス 376" d="M633.792,4853.115c2.765,0,3.773,3.061,3.773,5.817,0,2.628-1.008,5.833-3.773,5.833-2.81,0-3.822-3.016-3.822-5.816C629.97,4856.313,631.006,4853.115,633.792,4853.115Zm-.007.656c-1.593,0-1.985,2.637-1.985,5.135s.482,5.2,1.994,5.2c1.546,0,1.953-2.666,1.953-5.183C635.747,4856.386,635.313,4853.771,633.785,4853.771Z" fill="#fff"/>
        <path id="パス_377" data-name="パス 377" d="M646.641,4861.3v1.323c0,1.169.076,1.272,1.373,1.4v.533h-4.371v-.533c1.334-.123,1.418-.254,1.418-1.423V4861.3H640.33v-.576c1.746-2.46,3.654-5.137,5.406-7.543h.9v7.222h1.748v.9Zm-1.58-6.124c-1.086,1.575-2.344,3.389-3.581,5.227h3.581Z" fill="#fff"/>
        <path id="パス_378" data-name="パス 378" d="M655.65,4861.033h-4.213l.131-1.154h4.211Z" fill="#fff"/>
        <path id="パス_379" data-name="パス 379" d="M660.066,4864.549v-.533c1.973-.12,2.084-.23,2.084-1.571V4855.6c0-.919-.162-.961-.945-1.037l-.82-.09V4854a15.71,15.71,0,0,0,3.422-.886v9.33c0,1.363.107,1.451,2.091,1.571v.533Z" fill="#fff"/>
        <path id="パス_380" data-name="パス 380" d="M677.264,4862.051c-.243.839-.555,1.815-.737,2.5h-6.875v-.442c.985-.965,2.059-2.028,2.948-3.054,1.171-1.365,2.168-2.767,2.168-4.3,0-1.456-.762-2.313-2.061-2.313a3.128,3.128,0,0,0-2.478,1.661l-.438-.391,1.051-1.5a3.316,3.316,0,0,1,2.517-1.087,2.983,2.983,0,0,1,3.108,3.135c0,1.508-.557,2.578-2.289,4.315-.762.781-1.873,1.85-2.625,2.556h3.365c1,0,1.258-.087,1.881-1.222Z" fill="#fff"/>
        <path id="パス_381" data-name="パス 381" d="M686.33,4861.3v1.323c0,1.169.076,1.272,1.373,1.4v.533h-4.371v-.533c1.334-.123,1.418-.254,1.418-1.423V4861.3h-4.73v-.576c1.746-2.46,3.654-5.137,5.406-7.543h.9v7.222h1.748v.9Zm-1.58-6.124c-1.086,1.575-2.344,3.389-3.58,5.227h3.58Z" fill="#fff"/>
      </g>
    </g>
    <g id="グループ_224" data-name="グループ 224">
      <path id="パス_382" data-name="パス 382" d="M568.939,4863.492a14.885,14.885,0,0,0-3.082-1.94,1.265,1.265,0,0,0-1.375.869c-.223.594-.535.508-.535.508a17.577,17.577,0,0,1-5.606-6.653s-.032-.322.592-.441,1.164-.691,1.089-1.208a14.881,14.881,0,0,0-1.389-3.366,1.473,1.473,0,0,0-1.767-.31,4.168,4.168,0,0,0-2.28,4.3,15.463,15.463,0,0,0,9.735,11.553,4.169,4.169,0,0,0,4.624-1.518A1.474,1.474,0,0,0,568.939,4863.492Z" fill="none" stroke="#fff" stroke-miterlimit="10" stroke-width="1"/>
    </g>
  </g>
</svg>
