<svg xmlns="http://www.w3.org/2000/svg" width="106.824" height="109.649" viewBox="0 0 106.824 109.649">
  <g id="グループ_237" data-name="グループ 237" transform="translate(-577.419 -338.933)">
    <g id="グループ_234" data-name="グループ 234">
      <path id="パス_389" data-name="パス 389" d="M613.318,377.021c-2.6.424-3.15.828-4.379,3.7-1.229,2.816-2.553,6.235-5.938,14.983a137.022,137.022,0,0,0-4.845,13.773c-.292,1.055-.841,1.31-1.493,1.315-1.6.014-3.066-1.126-3.076-2.379-.006-.652.341-1.106,1.087-1.764A11.276,11.276,0,0,0,598,402.909c1.034-2.113,1.771-3.874,2.016-4.527a2.934,2.934,0,0,0-.118-2.054c-2-5.7-4.76-11.837-6.294-15.432-1.125-2.747-1.581-3.344-4.34-3.672l-.012-1.353,10.123-.085.011,1.352c-2.3.371-2.548.874-1.881,2.722l4.965,12.287c1.373-3.469,3.331-9.048,4.356-12.215.586-1.909.23-2.457-2.679-2.834l-.012-1.352,9.17-.077Z" fill="#fff"/>
      <path id="パス_390" data-name="パス 390" d="M648.308,396.222a57.464,57.464,0,0,0-7.652,1.818l-.033-3.859c-2.686,2.278-4.878,3.9-7.634,3.924-3.357.028-6.281-2-6.327-7.464l-.082-9.722c-.022-2.706-.426-3-1.681-3.243l-1.4-.239-.011-1.3a67.948,67.948,0,0,0,7.158-.962c-.137,1.6-.116,4.01-.089,7.317l.058,6.816c.037,4.409,2.353,5.642,4.608,5.623a7.911,7.911,0,0,0,5.391-2.451l-.1-11.676c-.023-2.7-.627-3.051-2.333-3.287l-1.6-.187-.011-1.3a70.951,70.951,0,0,0,7.86-.968l.141,16.787c.021,2.505.425,2.853,2.33,2.937l1.4.038Z" fill="#fff"/>
      <path id="パス_391" data-name="パス 391" d="M660.795,397.269l-.011-1.4c3.154-.326,3.5-.58,3.474-3.988l-.087-10.322c-.026-3.107-.178-3.306-3.189-3.782l-.01-1.2a32.826,32.826,0,0,0,7.1-2.064l.053,6.314.093,11.024c.028,3.408.382,3.656,3.641,3.928l.012,1.4Zm4.98-27.655a2.743,2.743,0,0,1-2.679-2.634,2.706,2.706,0,0,1,2.683-2.778,2.616,2.616,0,0,1,2.579,2.734A2.662,2.662,0,0,1,665.775,369.614Z" fill="#fff"/>
    </g>
    <g id="グループ_235" data-name="グループ 235">
      <path id="パス_392" data-name="パス 392" d="M590.434,345.921l.018,2.213c.006.715.023,1.127.039,1.292.03.371.058.48.609.586.468.079.416.491,0,.495-.316,0-.646-.022-1.155-.018s-.769.034-1.1.037c-.509,0-.512-.408,0-.495.411-.086.521-.156.545-.61.023-.494.021-.755.015-1.456l-.046-5.429c-.008-.908-.01-1.2-.04-1.512s-.113-.371-.829-.516c-.3-.025-.4-.409.064-.468a3.584,3.584,0,0,0,1.289-.423,1,1,0,0,1,.466-.183.2.2,0,0,1,.181.26,7.245,7.245,0,0,0-.1,1.623l.03,3.587c0,.056.028.082.11.013a7.13,7.13,0,0,1,1.066-.751,2.241,2.241,0,0,1,1.1-.311,1.972,1.972,0,0,1,1.971,2.182l.025,2.969c0,.151,0,.261.017.481.017.275.1.4.582.49s.512.49-.009.495c-.289,0-.716-.022-1.059-.019-.385,0-.591.033-1.127.037-.453,0-.512-.38-.073-.48.467-.114.576-.211.6-.514.013-.124.024-.4.017-1.237l-.015-1.691c-.011-1.4-.674-1.795-1.581-1.787a2,2,0,0,0-1.547.769C590.431,345.633,590.432,345.7,590.434,345.921Z" fill="#fff"/>
      <path id="パス_393" data-name="パス 393" d="M603.253,346.24c-.067-1.361-.9-1.739-1.568-1.733a.917.917,0,0,0-.931.475c-.136.262-.2.648-.322.952s-.423.374-.6-.037a1.4,1.4,0,0,1-.143-.617.476.476,0,0,1,.189-.414,5.559,5.559,0,0,1,2.383-1.092c1.635-.014,1.963,1.33,1.97,2.224s-.015,3.024-.014,3.189a.6.6,0,0,0,.043.274c.126.22.525.2.786.2.288-.016.292.355,0,.522a2.454,2.454,0,0,1-1.3.341c-.44-.01-.5-.394-.532-1.081a3.769,3.769,0,0,1-2.34,1.16,1.563,1.563,0,0,1-1.485-1.692c-.011-1.264,1.784-1.98,3.337-1.993.137,0,.33.01.536.023Zm.012,1.415c0-.082-.043-.082-.1-.1a5.1,5.1,0,0,0-1.087-.046c-.948.021-1.576.467-1.57,1.182a.948.948,0,0,0,1.066,1.008,1.923,1.923,0,0,0,1.533-.811.574.574,0,0,0,.161-.5Z" fill="#fff"/>
      <path id="パス_394" data-name="パス 394" d="M609.175,350.355c-.467,0-.485-.423-.046-.508.59-.129.672-.24.667-.817l-.027-3.189a3.751,3.751,0,0,0-.032-.618c-.016-.22-.058-.274-.609-.49-.249-.094-.265-.4.065-.454a3.44,3.44,0,0,0,1.164-.436.722.722,0,0,1,.343-.14c.137,0,.221.094.2.3a9.568,9.568,0,0,0-.1,1.76l.027,3.189c.006.646.062.755.7.874.427.065.43.5-.051.508-.343,0-.673-.021-1.168-.017C609.917,350.321,609.422,350.353,609.175,350.355Zm1.806-9.225a.778.778,0,0,1-.763.845.727.727,0,0,1-.735-.764.782.782,0,0,1,.763-.831A.748.748,0,0,1,610.981,341.13Z" fill="#fff"/>
      <path id="パス_395" data-name="パス 395" d="M620.221,344.406a1.386,1.386,0,0,1-.186.73c-.04.111-.163.263-.3.264s-.152-.026-.36-.258a.947.947,0,0,0-.731-.338,1.568,1.568,0,0,0-1.177.67.291.291,0,0,0-.067.207l.023,2.707c0,.344.019.619.034.825.031.4.155.452.954.6.413.079.361.464-.023.467-.289,0-.771-.021-1.362-.016s-.948.036-1.277.038c-.372,0-.416-.381-.046-.48.576-.157.6-.211.628-.542a5.493,5.493,0,0,0,.034-.866l-.019-2.254a4.581,4.581,0,0,0-.049-.907c-.016-.206-.154-.3-.677-.461-.221-.081-.223-.315,0-.413a11.583,11.583,0,0,0,1.245-.643.44.44,0,0,1,.233-.084c.11,0,.18.108.209.259a6.945,6.945,0,0,1,.091,1.085c1.132-1.136,1.542-1.359,1.982-1.363A.8.8,0,0,1,620.221,344.406Z" fill="#fff"/>
      <path id="パス_396" data-name="パス 396" d="M633.429,346.563a1.721,1.721,0,0,1,1.292,1.529,2.09,2.09,0,0,1-1.085,1.837,2.914,2.914,0,0,1-1.481.411,2.7,2.7,0,0,1-1.115-.21c-.083-.041-.152-.068-.233.043-.15.18-.493.279-.5-.106,0-.481-.05-1-.124-1.689-.045-.426.38-.513.507-.1.028.082.141.383.2.534a1.54,1.54,0,0,0,1.575.908q1.2-.01,1.186-1.123a1.086,1.086,0,0,0-.737-1.012c-.4-.161-.923-.349-1.324-.5a1.68,1.68,0,0,1-.561-3.033,2.665,2.665,0,0,1,1.645-.536,2.782,2.782,0,0,1,.908.144c.1.026.111.012.151-.016.1-.069.164-.18.246-.236.164-.124.411-.112.372.107a10.281,10.281,0,0,0-.123,1.733c0,.454-.422.526-.493.156a2.316,2.316,0,0,0-.24-.7,1.241,1.241,0,0,0-1.187-.581c-.811.006-1.041.476-1.037.943.006.633.42.876.944,1.078Z" fill="#fff"/>
      <path id="パス_397" data-name="パス 397" d="M642.514,345.909c-.066-1.36-.894-1.738-1.568-1.732a.917.917,0,0,0-.93.475c-.136.262-.2.647-.322.951s-.423.375-.6-.036a1.386,1.386,0,0,1-.143-.618.472.472,0,0,1,.189-.413,5.548,5.548,0,0,1,2.383-1.092c1.635-.014,1.962,1.33,1.97,2.223s-.016,3.025-.014,3.19a.588.588,0,0,0,.043.274c.126.219.524.2.785.2.289-.016.292.354.005.522a2.456,2.456,0,0,1-1.3.341c-.44-.01-.5-.394-.532-1.082a3.772,3.772,0,0,1-2.341,1.161,1.564,1.564,0,0,1-1.485-1.692c-.01-1.264,1.785-1.981,3.338-1.994.137,0,.33.011.536.023Zm.012,1.416c0-.083-.042-.082-.1-.1a5.023,5.023,0,0,0-1.087-.046c-.948.021-1.576.467-1.57,1.181a.95.95,0,0,0,1.067,1.009,1.923,1.923,0,0,0,1.532-.811.572.572,0,0,0,.161-.5Z" fill="#fff"/>
      <path id="パス_398" data-name="パス 398" d="M650.811,349.509c.413.066.389.492-.051.5-.274,0-.769-.021-1.2-.018-.591.005-.838.035-1.292.039-.4,0-.456-.423-.045-.495.59-.115.644-.252.7-.556a13.26,13.26,0,0,0,.028-1.567l-.045-5.237c-.008-1.058-.011-1.332-.041-1.608-.058-.37-.169-.438-.843-.583-.3-.066-.319-.383.01-.454a5.952,5.952,0,0,0,1.467-.452.936.936,0,0,1,.343-.141c.164,0,.248.136.167.384a6.15,6.15,0,0,0-.071,1.265l.059,7.024c.008.92.023,1.168.038,1.347C650.066,349.269,650.15,349.391,650.811,349.509Z" fill="#fff"/>
      <path id="パス_399" data-name="パス 399" d="M661.152,346.358a3.608,3.608,0,0,1-.79,2.466,3.684,3.684,0,0,1-2.752,1.343,3.036,3.036,0,0,1-2.941-3.219,3.273,3.273,0,0,1,1.146-2.69,3.738,3.738,0,0,1,2.424-.955A2.983,2.983,0,0,1,661.152,346.358Zm-3.5-2.35c-1.539.013-1.856,1.515-1.848,2.491.013,1.47.672,3,2.376,2.989,1.1-.009,1.833-1.032,1.82-2.6C659.992,345.666,659.373,343.994,657.654,344.008Z" fill="#fff"/>
      <path id="パス_400" data-name="パス 400" d="M665.889,345.108c0-.413-.073-.536-.707-.737a.222.222,0,0,1,.024-.426,4.829,4.829,0,0,0,1.1-.559.937.937,0,0,1,.356-.154c.124,0,.179.067.208.218a4.67,4.67,0,0,1,.077.962,9.83,9.83,0,0,1,1.134-.834,2.143,2.143,0,0,1,1.152-.367c1.154-.01,1.917.822,1.93,2.361l.027,3.161c0,.44.086.494.692.6.427.065.416.492-.037.495s-.811-.02-1.279-.016c-.357,0-.893.035-1.154.037-.495,0-.5-.422-.073-.494.727-.144.768-.281.777-.721.012-.276.037-.592.026-1.925l-.008-.921a1.468,1.468,0,0,0-1.567-1.664,2.209,2.209,0,0,0-1.546.852.457.457,0,0,0-.094.358l.02,2.336a7.164,7.164,0,0,0,.051,1.1c.016.386.072.481.761.6.4.065.375.492-.065.495-.3,0-.757-.021-1.251-.017-.454,0-.838.035-1.2.038-.467,0-.457-.423-.045-.495.617-.128.658-.225.682-.624a9.545,9.545,0,0,0,.03-1.292Z" fill="#fff"/>
    </g>
    <g id="グループ_236" data-name="グループ 236">
      <path id="パス_401" data-name="パス 401" d="M643.142,439.423a32.3,32.3,0,0,1-8.346-1.187l3.741-1.539a23.624,23.624,0,0,0,4.647.508,36.753,36.753,0,0,0,8.3-1.341l2.888,1.632A40.492,40.492,0,0,1,643.142,439.423Z" fill="#fff"/>
      <path id="パス_402" data-name="パス 402" d="M586.753,448.582a1.306,1.306,0,0,1-.706-.2.967.967,0,0,1-.27-1.463c4.5-5.443,7.069-7.782,11.35-10.67l2.495,1.042a51.2,51.2,0,0,0-11.9,10.855A1.266,1.266,0,0,1,586.753,448.582Z" fill="#fff"/>
      <path id="パス_403" data-name="パス 403" d="M624.286,434.134c-3.956-1.163-6.787-1.923-9.777-1.916a23.965,23.965,0,0,0-7.52,1.4l-3.842-1.4a30.719,30.719,0,0,1,11.128-2.094,31.245,31.245,0,0,1,13.6,3.056Z" fill="#fff"/>
      <path id="パス_404" data-name="パス 404" d="M660.523,433.013a61.5,61.5,0,0,0,10.92-6.37,72.835,72.835,0,0,0,9.736-8.2l3.064-.008a73.413,73.413,0,0,1-11.294,9.842,64.458,64.458,0,0,1-10.325,6.126Z" fill="#fff"/>
      <path id="パス_405" data-name="パス 405" d="M673.312,445.2c-5.681.014-8.773-2.786-11.763-5.495a35.255,35.255,0,0,0-3.8-3.123l-3.381-1.779a19,19,0,0,0-6.94-1.16,40.435,40.435,0,0,0-9.408,1.3l-8.05,2.348a45.051,45.051,0,0,1-28.359-1.315l-3.11-1.291a56.534,56.534,0,0,1-8.122-4.563,67.957,67.957,0,0,1-12.96-11.427l3.1-.008a61.357,61.357,0,0,0,20.769,14.791l3.649,1.336a42.362,42.362,0,0,0,13.023,2.052,41.912,41.912,0,0,0,6.667-.555l8.128-2.1a63.358,63.358,0,0,1,9.714-2.256,36.727,36.727,0,0,1,4.965-.375,20.528,20.528,0,0,1,10.327,2.439l2.7,1.805c1,.779,1.918,1.608,2.8,2.41,2.9,2.624,5.386,4.879,10.051,4.867a17.55,17.55,0,0,0,2.378-.178,1.332,1.332,0,0,1,.188-.014,1.158,1.158,0,0,1,1.187.883.94.94,0,0,1-.213.78,1.225,1.225,0,0,1-.783.42,20.375,20.375,0,0,1-2.759.206Z" fill="#fff"/>
    </g>
  </g>
</svg>
