<svg xmlns="http://www.w3.org/2000/svg" width="403.184" height="347.079" viewBox="0 0 403.184 347.079">
  <g id="グループ_226" data-name="グループ 226" transform="translate(1.401 -99.405)">
    <path id="パス_328" data-name="パス 328" d="M-1.788,56.632C26.418,52.6,104.961,34.529,191.5,54.5c70.605,16.293,184.651,18.916,207.651,3.916" transform="translate(1.5 56.973)" fill="none" stroke="#000" stroke-linecap="round" stroke-miterlimit="10" stroke-width="0.709"/>
    <path id="パス_338" data-name="パス 338" d="M-1.788,56.632C26.418,52.6,104.961,34.529,191.5,54.5c70.605,16.293,184.651,18.916,207.651,3.916" transform="translate(1.5 375.973)" fill="none" stroke="#000" stroke-linecap="round" stroke-miterlimit="10" stroke-width="0.709"/>
    <path id="パス_329" data-name="パス 329" d="M-1.5,43.5c28.206-4.029,101.466-1.448,188.005,18.523C257.11,78.316,376.793,57.5,399.793,42.5" transform="translate(1.5 57.973)" fill="none" stroke="#000" stroke-linecap="round" stroke-miterlimit="10" stroke-width="0.709"/>
    <path id="パス_339" data-name="パス 339" d="M-1.5,43.5c28.206-4.029,101.466-1.448,188.005,18.523C257.11,78.316,376.793,57.5,399.793,42.5" transform="translate(0.5 377.973)" fill="none" stroke="#000" stroke-linecap="round" stroke-miterlimit="10" stroke-width="0.709"/>
  </g>
</svg>
