<svg xmlns="http://www.w3.org/2000/svg" width="192.127" height="15.837" viewBox="0 0 192.127 15.837">
  <g id="グループ_118" data-name="グループ 118" transform="translate(-907.959 -5394)">
    <text id="HOTPEPPER_Beauty" data-name="HOTPEPPER Beauty" transform="translate(928.086 5405.837)" font-size="14" font-family="AcuminProWide-Medium, Acumin Pro Wide" font-weight="500" letter-spacing="0.1em"><tspan x="0" y="0">HOTPEPPER Beauty</tspan></text>
    <path id="パス_265" data-name="パス 265" d="M914.961,5407.983c-.925,0-1.852.039-2.774-.008a4.43,4.43,0,0,1-4.152-3.735,5.639,5.639,0,0,1-.072-.871c-.007-1.593,0-3.186,0-4.778a4.545,4.545,0,0,1,4.595-4.591H917.4a4.5,4.5,0,0,1,4.554,4.539q0,2.459,0,4.918a4.445,4.445,0,0,1-4.5,4.539c-.832.01-1.663,0-2.495,0Zm-3.582-10.994-.014.112c.691-.052.737.419.79.906a3.3,3.3,0,0,0,.369-.447,3.37,3.37,0,0,1,1.949-1.408,1.822,1.822,0,0,1,2.248,1.194,3.744,3.744,0,0,1,.079,2.181,2.435,2.435,0,0,1-.225.511c-.094.181-.222.213-.434.144a2.25,2.25,0,0,0-.887-.135.671.671,0,0,0-.451.394c-.084.248.134.429.371.453a5.022,5.022,0,0,0,1.042,0c.205-.022.343,0,.434.187a4.442,4.442,0,0,1,.283.6,5.2,5.2,0,0,1-.021,3.047,1.6,1.6,0,0,1-1.324,1.293,2.244,2.244,0,0,1-2.035-.742,2.206,2.206,0,0,0,.431-1.544c-.01-.456-.052-.911-.092-1.366a8.616,8.616,0,0,1,.452-3.737c.034-.094.055-.192.106-.377l-.736.377-.424-.649a2.763,2.763,0,0,0-.132.4,21.916,21.916,0,0,0-.346,2.5,24.408,24.408,0,0,0,.164,2.555,2.061,2.061,0,0,1-.084,1.212,5.346,5.346,0,0,0-.81-.372.744.744,0,0,0-.555,1.379,1.641,1.641,0,0,0,1.323.149.547.547,0,0,1,.38.026,3.942,3.942,0,0,0,3.453.3,3.035,3.035,0,0,0,.67-5.323c-.1-.067-.206-.136-.316-.209a2.347,2.347,0,0,0,1.1-1.633,2.784,2.784,0,0,0-2.122-3.158,4.927,4.927,0,0,0-3.633.511A10.986,10.986,0,0,0,911.379,5396.989Z" fill="#231815"/>
  </g>
</svg>
