<svg xmlns="http://www.w3.org/2000/svg" width="206.345" height="205.092" viewBox="0 0 206.345 205.092">
  <g id="グループ_227" data-name="グループ 227" transform="translate(-232.731 -2484.775)">
    <path id="パス_166" data-name="パス 166" d="M402.544,2517.561c44.17,37.2,48.8,86.7,11.6,130.869s-93.462,55.982-137.632,18.783-58.892-108.794-21.693-152.964S358.375,2480.361,402.544,2517.561Z" transform="translate(-0.5)" fill="none" stroke="#3e3a39" stroke-miterlimit="10" stroke-width="0.8"/>
    <g id="グループ_219" data-name="グループ 219" transform="translate(273.738 2565.887)">
      <g id="グループ_216" data-name="グループ 216" transform="translate(0 29.385)">
        <g id="グループ_215" data-name="グループ 215">
          <path id="パス_392" data-name="パス 392" d="M295.557,2593.448c-1,.146-1.163.327-1.671,1.272-.418.8-1,1.926-1.908,3.815v3.852c0,1.126.09,1.235,1.326,1.381v.526h-4.089v-.526c1.218-.127,1.327-.273,1.327-1.381l-.018-3.835c-.6-1.308-1.163-2.416-1.835-3.815-.545-1.054-.691-1.181-1.6-1.29v-.509h3.78v.509l-.473.073c-.509.092-.6.2-.454.6.382.908,1.181,2.525,1.69,3.651.472-1,1.327-2.725,1.6-3.433.181-.49.163-.691-.4-.8l-.526-.091v-.509h3.252Zm-6.958,5.36v-.618h5.414v.618Zm0,1.89v-.619h5.432v.619Z" transform="translate(-287.09 -2590.94)" fill="#3e3a39"/>
          <path id="パス_393" data-name="パス 393" d="M298.121,2604.3v-.509c2.017-.127,2.127-.217,2.127-1.581v-6.977c0-.927-.128-.962-.927-1.035l-.891-.091v-.456a14.959,14.959,0,0,0,3.325-.889v9.448c0,1.381.109,1.454,2.144,1.581v.509Z" transform="translate(-285.947 -2590.959)" fill="#3e3a39"/>
          <path id="パス_394" data-name="パス 394" d="M307.753,2604.3v-.509c2.017-.127,2.127-.217,2.127-1.581v-6.977c0-.927-.128-.962-.927-1.035l-.891-.091v-.456a14.96,14.96,0,0,0,3.325-.889v9.448c0,1.381.109,1.454,2.144,1.581v.509Z" transform="translate(-284.949 -2590.959)" fill="#3e3a39"/>
          <path id="パス_395" data-name="パス 395" d="M324.006,2601.879c-.235.818-.544,1.745-.726,2.417h-6.85v-.437c1-.98,2.089-2.053,2.98-3.088,1.144-1.344,2.235-2.8,2.235-4.379,0-1.507-.8-2.379-2.126-2.379a3.154,3.154,0,0,0-2.507,1.69l-.418-.383,1.036-1.471a3.294,3.294,0,0,1,2.489-1.09,2.97,2.97,0,0,1,3.089,3.143c0,1.545-.563,2.635-2.289,4.4-.781.818-1.927,1.926-2.708,2.67h3.471c.981,0,1.254-.09,1.872-1.235Z" transform="translate(-284.051 -2590.959)" fill="#3e3a39"/>
          <path id="パス_396" data-name="パス 396" d="M329.892,2592.758c2.725,0,3.742,3.052,3.742,5.869,0,2.652-1.017,5.886-3.742,5.886-2.78,0-3.8-3-3.8-5.868C326.095,2595.991,327.13,2592.758,329.892,2592.758Zm0,.635c-1.69,0-2.108,2.672-2.108,5.216s.509,5.269,2.108,5.269c1.636,0,2.071-2.707,2.071-5.251C331.964,2596.065,331.509,2593.393,329.892,2593.393Z" transform="translate(-283.049 -2590.959)" fill="#3e3a39"/>
          <path id="パス_397" data-name="パス 397" d="M339.523,2592.758c2.726,0,3.743,3.052,3.743,5.869,0,2.652-1.017,5.886-3.743,5.886-2.78,0-3.8-3-3.8-5.868C335.727,2595.991,336.762,2592.758,339.523,2592.758Zm0,.635c-1.688,0-2.107,2.672-2.107,5.216s.509,5.269,2.107,5.269c1.636,0,2.071-2.707,2.071-5.251C341.595,2596.065,341.141,2593.393,339.523,2593.393Z" transform="translate(-282.052 -2590.959)" fill="#3e3a39"/>
          <path id="パス_398" data-name="パス 398" d="M350.162,2607.99a10.621,10.621,0,0,1,0-16.862l.363.455a11.2,11.2,0,0,0-3.034,7.977,11.526,11.526,0,0,0,3.034,7.976Z" transform="translate(-280.988 -2591.128)" fill="#3e3a39"/>
          <path id="パス_399" data-name="パス 399" d="M363.7,2597.968v.834h-4.42v4.407h-.821V2598.8h-4.421v-.834h4.421v-4.421h.821v4.421Z" transform="translate(-280.154 -2590.877)" fill="#3e3a39"/>
          <path id="パス_400" data-name="パス 400" d="M369.758,2604.2a1.826,1.826,0,0,1-.781.236c-1.163,0-1.781-.707-1.781-2.162v-5.287h-1.254l-.073-.217.49-.528h.837v-1.525c.345-.365.872-.837,1.217-1.2l.273.036c-.036.762-.054,1.815-.054,2.688H370.7a.57.57,0,0,1-.109.745h-1.962v4.652c0,1.472.581,1.744,1.054,1.744a2.577,2.577,0,0,0,1.108-.291l.163.473Z" transform="translate(-278.929 -2590.881)" fill="#3e3a39"/>
          <path id="パス_401" data-name="パス 401" d="M378.636,2604.2a1.337,1.337,0,0,1-.854-.344,1.7,1.7,0,0,1-.436-.819,5.693,5.693,0,0,1-2.181,1.163,2.228,2.228,0,0,1-2.217-2.233,1.85,1.85,0,0,1,1.49-1.818,14.261,14.261,0,0,0,2.872-1.181v-.363c0-1.29-.654-2.036-1.6-2.036a1.056,1.056,0,0,0-.854.418,3.892,3.892,0,0,0-.49,1.181.506.506,0,0,1-.527.418.873.873,0,0,1-.8-.8c0-.255.236-.472.6-.727a7.657,7.657,0,0,1,2.617-1.272,2.387,2.387,0,0,1,2.452,2.6v3.506c0,.836.31,1.092.637,1.092a1.437,1.437,0,0,0,.653-.2l.182.509Zm-1.327-4.6c-.4.2-1.271.58-1.69.763-.691.309-1.109.653-1.109,1.327a1.322,1.322,0,0,0,1.309,1.4,2.408,2.408,0,0,0,1.49-.655Z" transform="translate(-278.196 -2590.645)" fill="#3e3a39"/>
          <path id="パス_402" data-name="パス 402" d="M385.786,2603.962v-.509c.781-.091.945-.217.636-.71l-1.363-2.124c-.4.653-.8,1.29-1.162,1.926-.345.617-.309.781.636.908v.509H381.1v-.509a2.271,2.271,0,0,0,2.054-1.163c.509-.708.981-1.417,1.526-2.235l-1.563-2.453a1.843,1.843,0,0,0-1.781-1.126v-.491h3.653v.491c-.764.108-.837.254-.509.781l1.089,1.653c.345-.527.71-1.144,1.036-1.691.309-.507.2-.653-.582-.744v-.491h3.307v.491a2.35,2.35,0,0,0-2.09,1.126c-.254.347-.69.946-1.29,1.854l1.745,2.688c.691,1,.891,1.164,2,1.309v.509Z" transform="translate(-277.352 -2590.625)" fill="#3e3a39"/>
          <path id="パス_403" data-name="パス 403" d="M391.211,2591.128a10.622,10.622,0,0,1,0,16.862l-.382-.454a11.211,11.211,0,0,0,3.053-7.958,11.4,11.4,0,0,0-3.053-7.994Z" transform="translate(-276.344 -2591.128)" fill="#3e3a39"/>
          <path id="パス_404" data-name="パス 404" d="M408.846,2597.522c.108,2.126-1,2.926-2.254,2.926a7.027,7.027,0,0,1-2.926-.891,6.617,6.617,0,0,0-2.561-.908c-.764,0-1.217.581-1.235,1.743H398.8c-.073-1.889.962-2.924,2.344-2.924a6.863,6.863,0,0,1,2.87.908,6.842,6.842,0,0,0,2.635.872c.781,0,1.144-.654,1.144-1.726Z" transform="translate(-275.518 -2590.471)" fill="#3e3a39"/>
        </g>
      </g>
      <g id="グループ_218" data-name="グループ 218" transform="translate(16.247)">
        <g id="グループ_217" data-name="グループ 217">
          <path id="パス_405" data-name="パス 405" d="M308.589,2573.333a4.321,4.321,0,0,1-3.107,1.853,3.666,3.666,0,0,1-3.671-3.816,4.315,4.315,0,0,1,1.835-3.561,4.809,4.809,0,0,1,2.762-1.036,2.688,2.688,0,0,1,1.69.492.572.572,0,0,1,.29.526.916.916,0,0,1-.653.818c-.092,0-.164-.038-.345-.182a2.706,2.706,0,0,0-1.835-.763c-1.2,0-2.254,1.018-2.254,2.907-.018,2.525,1.708,3.362,2.762,3.362a2.91,2.91,0,0,0,2.216-1Z" transform="translate(-301.812 -2564.266)" fill="#3e3a39"/>
          <path id="パス_406" data-name="パス 406" d="M319.231,2574.541a20.869,20.869,0,0,0-2.78.636v-1.4a4.481,4.481,0,0,1-2.78,1.4c-1.217,0-2.271-.745-2.271-2.726v-3.525c0-.981-.146-1.09-.6-1.18l-.508-.091v-.474a24.594,24.594,0,0,0,2.6-.327c-.054.582-.054,1.454-.054,2.653v2.471c0,1.6.835,2.053,1.653,2.053a2.87,2.87,0,0,0,1.962-.872v-4.234c0-.981-.219-1.108-.835-1.2l-.582-.073v-.474a25.309,25.309,0,0,0,2.852-.327v6.088c0,.908.146,1.036.837,1.072l.509.018Z" transform="translate(-300.934 -2564.257)" fill="#3e3a39"/>
          <path id="パス_407" data-name="パス 407" d="M324.454,2575.185a1.837,1.837,0,0,1-.781.236c-1.163,0-1.781-.708-1.781-2.162v-5.287h-1.254l-.073-.219.491-.527h.835V2565.7c.345-.364.873-.836,1.217-1.2l.273.037c-.036.764-.054,1.816-.054,2.689H325.4a.569.569,0,0,1-.109.745h-1.962v4.651c0,1.472.582,1.743,1.054,1.743a2.6,2.6,0,0,0,1.108-.289l.163.471Z" transform="translate(-299.869 -2564.501)" fill="#3e3a39"/>
          <path id="パス_408" data-name="パス 408" d="M339.9,2568.953v.834h-4.421v4.407h-.821v-4.407h-4.421v-.834h4.421v-4.421h.821v4.421Z" transform="translate(-298.868 -2564.498)" fill="#3e3a39"/>
          <path id="パス_409" data-name="パス 409" d="M343.423,2567.389a11.768,11.768,0,0,0,2.634-.781v1.455c.055-.036,1.509-.873,1.581-.908a2.561,2.561,0,0,1,1.054-.365,3.28,3.28,0,0,1,3.216,3.472c0,2.761-2.18,4.506-4.56,4.942a3.046,3.046,0,0,1-1.291-.327v2.452c0,1.344.146,1.455,1.545,1.582v.509H343.3v-.509c1.181-.127,1.327-.219,1.327-1.436v-8.267c0-1.09-.036-1.163-1.2-1.326Zm2.634,6.214a2.638,2.638,0,0,0,1.727.709c1.58,0,2.6-1.327,2.6-3.362,0-1.962-1.144-3.07-2.435-3.07a3.643,3.643,0,0,0-1.89.781Z" transform="translate(-297.515 -2564.283)" fill="#3e3a39"/>
          <path id="パス_410" data-name="パス 410" d="M360.626,2573.423a4.142,4.142,0,0,1-3.017,1.762,3.63,3.63,0,0,1-3.561-3.907,4.664,4.664,0,0,1,1.182-3.179,3.726,3.726,0,0,1,2.707-1.328,2.835,2.835,0,0,1,2.78,2.817c-.019.363-.073.527-.363.6-.364.073-2.689.236-4.851.309-.055,2.435,1.436,3.435,2.725,3.435a3.076,3.076,0,0,0,2.108-.927Zm-3.125-5.96c-.837,0-1.654.781-1.908,2.253,1.018,0,2.035,0,3.107-.054.328,0,.437-.091.437-.363A1.69,1.69,0,0,0,357.5,2567.463Z" transform="translate(-296.401 -2564.266)" fill="#3e3a39"/>
          <path id="パス_411" data-name="パス 411" d="M366.9,2574.972h-4.178v-.509c1.144-.108,1.253-.2,1.253-1.381V2569.3c0-1.2-.073-1.254-1.126-1.381v-.456a10.057,10.057,0,0,0,2.561-.743v2c.636-.944,1.4-1.945,2.308-1.945a.939.939,0,0,1,1.054.873,1.219,1.219,0,0,1-.618,1,.36.36,0,0,1-.472-.036,1.142,1.142,0,0,0-.817-.455c-.382,0-1.055.563-1.455,1.49v3.417c0,1.2.092,1.29,1.49,1.4Z" transform="translate(-295.502 -2564.271)" fill="#3e3a39"/>
          <path id="パス_412" data-name="パス 412" d="M380.476,2574.972v-.509c1.072-.108,1.2-.182,1.2-1.454v-3.034c0-1.29-.436-2.108-1.563-2.108a3.312,3.312,0,0,0-2.017.945,7.318,7.318,0,0,1,.054.781v3.525c0,1.144.164,1.236,1.163,1.344v.509h-3.888v-.509c1.127-.108,1.29-.182,1.29-1.381v-3.125c0-1.344-.418-2.089-1.526-2.089a3.473,3.473,0,0,0-2,.945v4.27c0,1.2.127,1.272,1.162,1.381v.509h-3.906v-.509c1.2-.108,1.308-.182,1.308-1.381v-3.761c0-1.163-.073-1.236-1.09-1.417v-.454a9.772,9.772,0,0,0,2.526-.726v1.471a12.7,12.7,0,0,1,1.344-.945,2.472,2.472,0,0,1,1.436-.474,2.126,2.126,0,0,1,1.98,1.491c.51-.4.981-.71,1.436-1.018a2.761,2.761,0,0,1,1.436-.474c1.417,0,2.289,1.019,2.289,2.8v3.506c0,1.217.109,1.272,1.144,1.381v.509Z" transform="translate(-294.702 -2564.271)" fill="#3e3a39"/>
        </g>
      </g>
    </g>
  </g>
</svg>
