<svg xmlns="http://www.w3.org/2000/svg" width="16.608" height="16.899" viewBox="0 0 16.608 16.899">
  <g id="グループ_114" data-name="グループ 114" transform="translate(-314.042 -5418.639)">
    <path id="パス_260" data-name="パス 260" d="M318.7,5435.538a4.662,4.662,0,0,1-4.657-4.657V5423.3a4.662,4.662,0,0,1,4.657-4.657h7.293a4.663,4.663,0,0,1,4.658,4.657v7.585a4.663,4.663,0,0,1-4.658,4.657Zm0-15.694a3.456,3.456,0,0,0-3.452,3.452v7.585a3.456,3.456,0,0,0,3.452,3.452h7.293a3.457,3.457,0,0,0,3.453-3.452V5423.3a3.456,3.456,0,0,0-3.453-3.452Z" fill="#231815"/>
    <path id="パス_261" data-name="パス 261" d="M322.346,5431.581a4.492,4.492,0,1,0-4.492-4.493A4.5,4.5,0,0,0,322.346,5431.581Zm0-7.585a3.093,3.093,0,1,1-3.092,3.092A3.1,3.1,0,0,1,322.346,5424Z" fill="#231815"/>
    <path id="パス_262" data-name="パス 262" d="M326.97,5423.471a1.007,1.007,0,1,0-1.007-1.006A1.006,1.006,0,0,0,326.97,5423.471Z" fill="#231815"/>
  </g>
</svg>
