<svg xmlns="http://www.w3.org/2000/svg" width="197.99" height="198.817" viewBox="0 0 197.99 198.817">
  <g id="グループ_230" data-name="グループ 230" transform="translate(-503.19 -2490.6)">
    <path id="パス_168" data-name="パス 168" d="M700.28,2594.886c0,51.675-45.552,94.131-97.227,94.131s-99.963-42.456-99.963-94.131S551.378,2491,603.053,2491,700.28,2543.212,700.28,2594.886Z" transform="translate(0.5)" fill="none" stroke="#3e3a39" stroke-miterlimit="10" stroke-width="0.8"/>
    <g id="グループ_224" data-name="グループ 224" transform="translate(544.898 2567.143)">
      <g id="グループ_221" data-name="グループ 221" transform="translate(0 28.063)">
        <g id="グループ_220" data-name="グループ 220">
          <path id="パス_413" data-name="パス 413" d="M538.384,2595.644c-.972.151-1.131.328-1.619,1.253-.4.783-.957,1.886-1.826,3.735l.031,3.755c.01,1.1.1,1.2,1.3,1.336l0,.513-3.984.033,0-.513c1.185-.135,1.291-.278,1.281-1.358l-.049-3.737c-.595-1.27-1.153-2.345-1.82-3.7-.54-1.023-.683-1.146-1.57-1.243l0-.5,3.684-.031,0,.5-.46.074c-.495.094-.583.2-.438.588.38.882,1.172,2.452,1.678,3.546.452-.979,1.269-2.669,1.53-3.36.173-.48.154-.675-.4-.777l-.514-.083,0-.5,3.169-.028Zm-6.738,5.283-.005-.6,5.277-.045.005.6Zm.016,1.841-.005-.6,5.3-.045.005.6Z" transform="translate(-530.127 -2592.408)" fill="#3e3a39"/>
          <path id="パス_414" data-name="パス 414" d="M547.655,2603.777c-.223.8-.516,1.7-.687,2.362l-6.677.056,0-.425c.966-.965,2.019-2.018,2.879-3.034,1.1-1.321,2.155-2.746,2.142-4.288-.013-1.469-.8-2.312-2.091-2.3a3.075,3.075,0,0,0-2.43,1.666l-.411-.368,1-1.443a3.21,3.21,0,0,1,2.417-1.084,2.9,2.9,0,0,1,3.037,3.039c.013,1.506-.527,2.573-2.2,4.305-.754.8-1.861,1.893-2.616,2.625l3.382-.029c.956-.009,1.222-.1,1.815-1.22Z" transform="translate(-529.358 -2592.425)" fill="#3e3a39"/>
          <path id="パス_415" data-name="パス 415" d="M557.38,2595.233c-1.669,3.609-3.286,7.2-4.973,10.882l-1.274.135-.127-.195a98.549,98.549,0,0,0,5.107-9.732l-3.79.033c-1.151.01-1.221.17-1.689,1.344l-.55,0c.169-.993.232-1.879.314-2.641l6.873-.06Z" transform="translate(-528.617 -2592.418)" fill="#3e3a39"/>
          <path id="パス_416" data-name="パス 416" d="M563.195,2594.753c2.657-.022,3.675,2.945,3.7,5.69.023,2.585-.942,5.746-3.6,5.768-2.71.024-3.726-2.889-3.75-5.688C559.52,2597.937,560.5,2594.776,563.195,2594.753Zm.005.62c-1.646.015-2.032,2.623-2.01,5.1s.539,5.132,2.1,5.118c1.594-.014,2-2.656,1.976-5.135C565.242,2597.96,564.777,2595.36,563.2,2595.373Z" transform="translate(-527.901 -2592.437)" fill="#3e3a39"/>
          <path id="パス_417" data-name="パス 417" d="M572.827,2594.672c2.657-.024,3.673,2.944,3.7,5.689.021,2.585-.943,5.746-3.6,5.769-2.708.022-3.725-2.89-3.749-5.689C569.152,2597.855,570.136,2594.693,572.827,2594.672Zm.005.619c-1.647.014-2.032,2.621-2.01,5.1s.539,5.132,2.1,5.119c1.594-.014,2-2.657,1.976-5.135C574.873,2597.878,574.408,2595.278,572.832,2595.292Z" transform="translate(-527.172 -2592.443)" fill="#3e3a39"/>
          <path id="パス_418" data-name="パス 418" d="M583.58,2609.386a10.353,10.353,0,0,1-.14-16.435l.357.441a10.921,10.921,0,0,0-2.891,7.8,11.232,11.232,0,0,0,3.024,7.75Z" transform="translate(-526.394 -2592.574)" fill="#3e3a39"/>
          <path id="パス_419" data-name="パス 419" d="M596.9,2599.567l.008.812-4.309.038.036,4.3-.8.006-.037-4.3-4.309.037-.006-.813,4.309-.037-.037-4.309.8-.007.037,4.309Z" transform="translate(-525.786 -2592.396)" fill="#3e3a39"/>
          <path id="パス_420" data-name="パス 420" d="M603.154,2605.586a1.786,1.786,0,0,1-.76.235c-1.133.01-1.742-.675-1.753-2.092l-.044-5.154-1.221.011-.073-.213.473-.516.815-.007-.013-1.488c.333-.358.843-.822,1.177-1.179l.266.033c-.029.744-.038,1.771-.031,2.621l2.019-.017a.554.554,0,0,1-.1.727l-1.913.016.039,4.534c.013,1.435.581,1.694,1.042,1.69a2.525,2.525,0,0,0,1.077-.291l.163.458Z" transform="translate(-524.891 -2592.405)" fill="#3e3a39"/>
          <path id="パス_421" data-name="パス 421" d="M611.984,2605.568a1.3,1.3,0,0,1-.835-.328,1.648,1.648,0,0,1-.431-.795,5.56,5.56,0,0,1-2.116,1.152,2.172,2.172,0,0,1-2.179-2.159,1.8,1.8,0,0,1,1.437-1.784,13.95,13.95,0,0,0,2.789-1.174l0-.354c-.011-1.258-.655-1.979-1.576-1.972a1.022,1.022,0,0,0-.828.414,3.788,3.788,0,0,0-.469,1.156.493.493,0,0,1-.51.411.852.852,0,0,1-.786-.772c0-.249.227-.463.579-.713a7.448,7.448,0,0,1,2.54-1.262,2.328,2.328,0,0,1,2.413,2.513l.029,3.417c.006.815.31,1.061.628,1.059a1.4,1.4,0,0,0,.636-.2l.182.495Zm-1.331-4.468c-.387.2-1.235.576-1.64.757-.67.306-1.075.648-1.069,1.3a1.287,1.287,0,0,0,1.287,1.352,2.351,2.351,0,0,0,1.447-.65C610.671,2603.031,610.661,2601.932,610.654,2601.1Z" transform="translate(-524.353 -2592.238)" fill="#3e3a39"/>
          <path id="パス_422" data-name="パス 422" d="M619.158,2605.283l0-.5c.762-.094.92-.219.614-.7l-1.347-2.06c-.384.641-.768,1.264-1.117,1.886-.332.6-.295.764.627.88l0,.5-3.348.029,0-.5a2.216,2.216,0,0,0,1.992-1.151c.491-.695.943-1.389,1.468-2.191l-1.543-2.379a1.8,1.8,0,0,0-1.745-1.083l0-.478,3.559-.03,0,.478c-.743.113-.813.255-.49.766l1.076,1.6c.332-.516.681-1.122,1-1.655.3-.5.189-.64-.573-.722l0-.478,3.224-.028,0,.479a2.29,2.29,0,0,0-2.028,1.116c-.245.338-.665.926-1.242,1.816L621,2603.5c.682.969.879,1.126,1.96,1.259l0,.5Z" transform="translate(-523.735 -2592.231)" fill="#3e3a39"/>
          <path id="パス_423" data-name="パス 423" d="M624.588,2592.6a10.356,10.356,0,0,1,.14,16.435l-.377-.44a10.934,10.934,0,0,0,2.91-7.783,11.12,11.12,0,0,0-3.041-7.766Z" transform="translate(-523.006 -2592.6)" fill="#3e3a39"/>
          <path id="パス_424" data-name="パス 424" d="M642.031,2598.847c.124,2.071-.95,2.86-2.172,2.871a6.867,6.867,0,0,1-2.858-.844,6.466,6.466,0,0,0-2.505-.864c-.744.007-1.182.577-1.19,1.711l-1.044.007c-.086-1.841.914-2.858,2.26-2.87a6.7,6.7,0,0,1,2.806.862,6.655,6.655,0,0,0,2.574.828c.762-.006,1.11-.648,1.1-1.693Z" transform="translate(-522.397 -2592.127)" fill="#3e3a39"/>
        </g>
      </g>
      <g id="グループ_223" data-name="グループ 223" transform="translate(15.631)">
        <g id="グループ_222" data-name="グループ 222">
          <path id="パス_425" data-name="パス 425" d="M548.51,2578.186a1.8,1.8,0,0,1-.759.237c-1.134.01-1.742-.676-1.755-2.093l-.043-5.154-1.222.01-.073-.212.474-.516.814-.008-.013-1.488c.333-.358.843-.823,1.177-1.18l.267.033c-.029.746-.039,1.771-.031,2.622l2.019-.018a.555.555,0,0,1-.1.727l-1.913.017.038,4.534c.012,1.435.581,1.694,1.042,1.69a2.516,2.516,0,0,0,1.078-.292l.162.458Z" transform="translate(-544.658 -2566.416)" fill="#3e3a39"/>
          <path id="パス_426" data-name="パス 426" d="M555.737,2577.974l-4.073.034,0-.5c1.114-.115,1.219-.206,1.21-1.355l-.032-3.684c-.01-1.169-.081-1.221-1.109-1.336l0-.443a9.813,9.813,0,0,0,2.491-.748c0,.584.011,1.364.016,1.948.612-.926,1.347-1.907,2.232-1.914a.913.913,0,0,1,1.035.841,1.185,1.185,0,0,1-.593.979.35.35,0,0,1-.461-.031,1.119,1.119,0,0,0-.8-.437c-.372,0-1.023.558-1.4,1.465l.028,3.329c.01,1.168.1,1.257,1.464,1.351Z" transform="translate(-544.128 -2566.252)" fill="#3e3a39"/>
          <path id="パス_427" data-name="パス 427" d="M559.418,2578.2l0-.5c1.114-.115,1.237-.205,1.227-1.41l-.031-3.648c-.009-1.1-.062-1.169-1.126-1.336l0-.426a11.686,11.686,0,0,0,2.51-.73l.018,2.232.033,3.9c.01,1.2.134,1.292,1.288,1.388l0,.5Zm1.759-9.775a.969.969,0,0,1-.947-.93.955.955,0,0,1,.948-.981.924.924,0,0,1,.912.965A.941.941,0,0,1,561.177,2568.424Z" transform="translate(-543.541 -2566.512)" fill="#3e3a39"/>
          <path id="パス_428" data-name="パス 428" d="M571.22,2578.052a1.291,1.291,0,0,1-.835-.329,1.659,1.659,0,0,1-.432-.793,5.574,5.574,0,0,1-2.115,1.151,2.172,2.172,0,0,1-2.179-2.16,1.8,1.8,0,0,1,1.437-1.783,13.99,13.99,0,0,0,2.788-1.175l0-.354c-.011-1.257-.654-1.979-1.575-1.972a1.032,1.032,0,0,0-.829.415,3.792,3.792,0,0,0-.468,1.155.492.492,0,0,1-.51.412.85.85,0,0,1-.786-.772c0-.247.226-.462.579-.713a7.441,7.441,0,0,1,2.539-1.263,2.328,2.328,0,0,1,2.413,2.513l.029,3.418c.007.815.311,1.06.628,1.057a1.432,1.432,0,0,0,.637-.2l.182.494Zm-1.331-4.469c-.388.2-1.235.576-1.64.757-.671.309-1.076.647-1.07,1.3a1.29,1.29,0,0,0,1.288,1.353,2.353,2.353,0,0,0,1.447-.65C569.906,2575.513,569.9,2574.415,569.89,2573.583Z" transform="translate(-543.069 -2566.258)" fill="#3e3a39"/>
          <path id="パス_429" data-name="パス 429" d="M578.063,2577.935a1.774,1.774,0,0,1-.76.237c-1.133.009-1.742-.676-1.753-2.092l-.043-5.154-1.222.01-.073-.211.473-.517.815-.008-.013-1.488c.333-.358.843-.823,1.177-1.18l.266.033c-.029.746-.038,1.771-.031,2.623l2.019-.019a.554.554,0,0,1-.1.727l-1.914.018.039,4.534c.012,1.435.581,1.694,1.041,1.69a2.524,2.524,0,0,0,1.079-.292l.162.458Z" transform="translate(-542.421 -2566.435)" fill="#3e3a39"/>
          <path id="パス_430" data-name="パス 430" d="M590.942,2577.676l0-.5c1.045-.115,1.168-.187,1.157-1.428l-.025-2.957c-.011-1.257-.443-2.05-1.54-2.042a3.239,3.239,0,0,0-1.959.938,7.1,7.1,0,0,1,.059.762l.029,3.435c.01,1.115.171,1.2,1.146,1.3l0,.5-3.791.031,0-.5c1.1-.115,1.256-.187,1.247-1.355l-.026-3.046c-.012-1.312-.425-2.034-1.5-2.025a3.386,3.386,0,0,0-1.941.938l.036,4.162c.01,1.168.134,1.238,1.146,1.336l0,.5-3.808.032,0-.5c1.168-.116,1.274-.188,1.263-1.356l-.03-3.666c-.011-1.134-.082-1.2-1.075-1.373l0-.443a9.543,9.543,0,0,0,2.456-.729c0,.425.009,1.01.013,1.434a12.459,12.459,0,0,1,1.3-.932,2.417,2.417,0,0,1,1.4-.472,2.07,2.07,0,0,1,1.943,1.436c.494-.4.951-.7,1.391-1a2.681,2.681,0,0,1,1.4-.472c1.381-.012,2.24.974,2.256,2.709l.028,3.419c.011,1.185.117,1.238,1.127,1.336l0,.5Z" transform="translate(-541.895 -2566.272)" fill="#3e3a39"/>
          <path id="パス_431" data-name="パス 431" d="M602.8,2576.066a4.023,4.023,0,0,1-2.925,1.742,3.537,3.537,0,0,1-3.5-3.777,4.557,4.557,0,0,1,1.125-3.11,3.636,3.636,0,0,1,2.627-1.316,2.763,2.763,0,0,1,2.733,2.724c-.014.354-.067.513-.348.586-.354.073-2.619.252-4.726.342-.033,2.373,1.426,3.334,2.684,3.324a3,3,0,0,0,2.047-.921Zm-3.095-5.783c-.815.007-1.6.776-1.84,2.213.992-.009,1.984-.017,3.027-.079.32,0,.425-.092.423-.358A1.648,1.648,0,0,0,599.7,2570.283Z" transform="translate(-540.745 -2566.278)" fill="#3e3a39"/>
          <path id="パス_432" data-name="パス 432" d="M610.158,2577.512l0-.5c1.026-.115,1.132-.24,1.121-1.445l-.025-2.922c-.011-1.241-.46-2.069-1.629-2.059a3.093,3.093,0,0,0-1.958.938l.034,4.144c.011,1.222.117,1.257,1.163,1.354l0,.5-3.825.032,0-.5c1.168-.134,1.273-.206,1.263-1.374l-.03-3.649c-.011-1.151-.134-1.2-1.093-1.354l0-.462a10.053,10.053,0,0,0,2.473-.729c0,.408.009.974.012,1.4.352-.25.74-.52,1.2-.825a2.722,2.722,0,0,1,1.465-.543c1.418-.013,2.312,1.025,2.326,2.742l.029,3.366c.01,1.2.117,1.256,1.146,1.354l0,.5Z" transform="translate(-540.088 -2566.286)" fill="#3e3a39"/>
          <path id="パス_433" data-name="パス 433" d="M619.321,2577.585a1.769,1.769,0,0,1-.759.236c-1.133.011-1.742-.676-1.753-2.092l-.044-5.154-1.221.011-.073-.212.473-.517.814-.008-.012-1.488c.333-.357.843-.822,1.177-1.178l.266.034c-.029.743-.039,1.769-.031,2.62l2.019-.016a.554.554,0,0,1-.1.727l-1.913.015.039,4.534c.012,1.435.581,1.694,1.041,1.691a2.554,2.554,0,0,0,1.078-.292l.164.459Z" transform="translate(-539.299 -2566.461)" fill="#3e3a39"/>
        </g>
      </g>
    </g>
  </g>
</svg>
