<svg xmlns="http://www.w3.org/2000/svg" width="195.047" height="198.728" viewBox="0 0 195.047 198.728">
  <g id="グループ_229" data-name="グループ 229" transform="translate(-485.571 -2232.713)">
    <path id="パス_170" data-name="パス 170" d="M653.659,2397.351c-34.786,41-96.28,44.837-137.284,10.05s-39.713-89.691-4.927-130.7,96.454-60.313,137.459-25.527S688.445,2356.346,653.659,2397.351Z" transform="translate(0.5)" fill="none" stroke="#3e3a39" stroke-miterlimit="10" stroke-width="0.8"/>
    <g id="グループ_214" data-name="グループ 214" transform="translate(525.012 2307.986)">
      <g id="グループ_211" data-name="グループ 211" transform="translate(0 33.431)">
        <g id="グループ_210" data-name="グループ 210">
          <path id="パス_371" data-name="パス 371" d="M521.539,2360.882c-1.03.15-1.2.336-1.722,1.31-.43.823-1.028,1.983-1.964,3.929v3.967c0,1.159.093,1.272,1.365,1.421v.542h-4.209v-.542c1.253-.13,1.366-.281,1.366-1.421l-.019-3.949c-.617-1.347-1.2-2.488-1.889-3.929-.562-1.085-.711-1.216-1.648-1.328v-.524h3.892v.524l-.486.075c-.524.094-.618.206-.468.618.393.935,1.217,2.6,1.741,3.759.486-1.028,1.365-2.806,1.646-3.536.188-.5.169-.711-.411-.824l-.542-.093v-.524h3.349Zm-7.166,5.519v-.636h5.575v.636Zm0,1.947v-.637h5.594v.637Z" transform="translate(-512.819 -2358.3)" fill="#3e3a39"/>
          <path id="パス_372" data-name="パス 372" d="M530.854,2360.619c-1.8,3.8-3.536,7.577-5.351,11.45l-1.347.13-.131-.206a104.858,104.858,0,0,0,5.482-10.234h-4c-1.216,0-1.291.168-1.8,1.4h-.581c.188-1.048.263-1.982.356-2.787h7.259Z" transform="translate(-511.413 -2358.298)" fill="#3e3a39"/>
          <path id="パス_373" data-name="パス 373" d="M540.329,2369.569c-.243.842-.561,1.8-.748,2.489h-7.054v-.45c1.028-1.01,2.151-2.114,3.068-3.18,1.178-1.384,2.3-2.882,2.3-4.509,0-1.552-.824-2.451-2.189-2.451a3.246,3.246,0,0,0-2.582,1.741l-.431-.394,1.066-1.515a3.4,3.4,0,0,1,2.564-1.123,3.059,3.059,0,0,1,3.181,3.236c0,1.591-.58,2.714-2.358,4.529-.8.842-1.983,1.983-2.788,2.75h3.574c1.01,0,1.291-.094,1.926-1.271Z" transform="translate(-510.131 -2358.325)" fill="#3e3a39"/>
          <path id="パス_374" data-name="パス 374" d="M546.1,2360.177c2.807,0,3.855,3.143,3.855,6.043,0,2.731-1.048,6.062-3.855,6.062-2.863,0-3.91-3.086-3.91-6.042C542.192,2363.507,543.259,2360.177,546.1,2360.177Zm0,.654c-1.739,0-2.169,2.751-2.169,5.371s.524,5.425,2.169,5.425c1.684,0,2.133-2.787,2.133-5.407C548.235,2363.583,547.768,2360.832,546.1,2360.832Z" transform="translate(-508.813 -2358.325)" fill="#3e3a39"/>
          <path id="パス_375" data-name="パス 375" d="M555.734,2360.177c2.807,0,3.855,3.143,3.855,6.043,0,2.731-1.048,6.062-3.855,6.062-2.863,0-3.91-3.086-3.91-6.042C551.824,2363.507,552.891,2360.177,555.734,2360.177Zm0,.654c-1.74,0-2.171,2.751-2.171,5.371s.524,5.425,2.171,5.425c1.684,0,2.133-2.787,2.133-5.407C557.867,2363.583,557.4,2360.832,555.734,2360.832Z" transform="translate(-507.499 -2358.325)" fill="#3e3a39"/>
          <path id="パス_376" data-name="パス 376" d="M566.383,2375.91a10.936,10.936,0,0,1,0-17.363l.374.468a11.532,11.532,0,0,0-3.125,8.214,11.863,11.863,0,0,0,3.125,8.213Z" transform="translate(-506.097 -2358.547)" fill="#3e3a39"/>
          <path id="パス_377" data-name="パス 377" d="M580.088,2365.518v.859h-4.552v4.538h-.844v-4.538h-4.552v-.859h4.552v-4.552h.844v4.552Z" transform="translate(-505.001 -2358.217)" fill="#3e3a39"/>
          <path id="パス_378" data-name="パス 378" d="M585.971,2371.936a1.879,1.879,0,0,1-.8.243c-1.2,0-1.834-.729-1.834-2.226v-5.444h-1.29l-.075-.224.5-.543h.86v-1.572c.356-.375.9-.86,1.253-1.234l.282.037c-.037.785-.057,1.87-.057,2.769h2.133a.586.586,0,0,1-.111.768H584.81v4.79c0,1.516.6,1.8,1.085,1.8a2.67,2.67,0,0,0,1.142-.3l.168.486Z" transform="translate(-503.387 -2358.221)" fill="#3e3a39"/>
          <path id="パス_379" data-name="パス 379" d="M594.9,2371.869a1.373,1.373,0,0,1-.878-.355,1.756,1.756,0,0,1-.45-.844,5.856,5.856,0,0,1-2.244,1.2,2.3,2.3,0,0,1-2.283-2.3,1.906,1.906,0,0,1,1.534-1.871,14.719,14.719,0,0,0,2.957-1.216v-.373c0-1.329-.674-2.1-1.647-2.1a1.087,1.087,0,0,0-.88.431,4.006,4.006,0,0,0-.5,1.217.522.522,0,0,1-.543.43.9.9,0,0,1-.824-.823c0-.262.243-.486.618-.749a7.877,7.877,0,0,1,2.693-1.31,2.458,2.458,0,0,1,2.526,2.677v3.61c0,.861.318,1.124.654,1.124a1.484,1.484,0,0,0,.674-.207l.187.524Zm-1.365-4.733c-.413.205-1.31.6-1.741.785-.71.32-1.141.674-1.141,1.367a1.36,1.36,0,0,0,1.347,1.439,2.482,2.482,0,0,0,1.535-.674Z" transform="translate(-502.422 -2357.911)" fill="#3e3a39"/>
          <path id="パス_380" data-name="パス 380" d="M602.023,2371.618v-.524c.8-.093.973-.224.655-.73l-1.4-2.188c-.411.673-.823,1.328-1.2,1.983-.356.635-.317.8.656.935v.524H597.2v-.524a2.341,2.341,0,0,0,2.115-1.2c.524-.729,1.009-1.458,1.571-2.3l-1.609-2.526a1.9,1.9,0,0,0-1.833-1.159v-.506h3.76v.506c-.785.111-.86.261-.524.8l1.123,1.7c.356-.543.73-1.178,1.067-1.741.317-.522.206-.673-.6-.765v-.506h3.4v.506a2.416,2.416,0,0,0-2.151,1.159c-.263.357-.711.974-1.328,1.909l1.8,2.769c.711,1.029.917,1.2,2.058,1.347v.524Z" transform="translate(-501.31 -2357.885)" fill="#3e3a39"/>
          <path id="パス_381" data-name="パス 381" d="M607.319,2358.547a10.938,10.938,0,0,1,0,17.363l-.392-.468a11.547,11.547,0,0,0,3.142-8.2,11.744,11.744,0,0,0-3.142-8.232Z" transform="translate(-499.983 -2358.547)" fill="#3e3a39"/>
          <path id="パス_382" data-name="パス 382" d="M625.242,2364.943c.113,2.189-1.028,3.013-2.32,3.013a7.238,7.238,0,0,1-3.012-.917,6.817,6.817,0,0,0-2.639-.935c-.785,0-1.254.6-1.272,1.8h-1.1c-.075-1.946.991-3.012,2.414-3.012a7.063,7.063,0,0,1,2.956.936,7.044,7.044,0,0,0,2.713.9c.8,0,1.178-.674,1.178-1.777Z" transform="translate(-498.896 -2357.682)" fill="#3e3a39"/>
        </g>
      </g>
      <g id="グループ_213" data-name="グループ 213" transform="translate(12.222)">
        <g id="グループ_212" data-name="グループ 212">
          <path id="パス_383" data-name="パス 383" d="M530.553,2340.3a4.454,4.454,0,0,1-3.2,1.908,3.774,3.774,0,0,1-3.779-3.929,4.443,4.443,0,0,1,1.89-3.668,4.952,4.952,0,0,1,2.843-1.066,2.775,2.775,0,0,1,1.741.506.59.59,0,0,1,.3.543.943.943,0,0,1-.674.841c-.093,0-.168-.036-.356-.186a2.777,2.777,0,0,0-1.89-.785c-1.234,0-2.319,1.047-2.319,2.992-.018,2.6,1.759,3.462,2.844,3.462a3,3,0,0,0,2.282-1.029Z" transform="translate(-523.574 -2328.528)" fill="#3e3a39"/>
          <path id="パス_384" data-name="パス 384" d="M541.259,2341.538a21.472,21.472,0,0,0-2.862.655v-1.441a4.609,4.609,0,0,1-2.863,1.441c-1.253,0-2.339-.767-2.339-2.807v-3.629c0-1.011-.15-1.123-.618-1.216l-.524-.093v-.487a25.4,25.4,0,0,0,2.676-.337c-.057.6-.057,1.5-.057,2.731v2.546c0,1.646.861,2.114,1.7,2.114a2.959,2.959,0,0,0,2.022-.9v-4.36c0-1.011-.225-1.142-.861-1.235l-.6-.074v-.487a26.625,26.625,0,0,0,2.936-.337v6.269c0,.935.15,1.066.86,1.1l.525.019Z" transform="translate(-522.417 -2328.516)" fill="#3e3a39"/>
          <path id="パス_385" data-name="パス 385" d="M546.332,2342.27a1.882,1.882,0,0,1-.8.243c-1.2,0-1.834-.73-1.834-2.226v-5.444H542.4l-.075-.224.5-.543h.861V2332.5c.356-.375.9-.86,1.253-1.234l.281.037c-.038.785-.056,1.87-.056,2.768H547.3a.587.587,0,0,1-.112.767h-2.02v4.79c0,1.516.6,1.8,1.085,1.8a2.655,2.655,0,0,0,1.141-.3l.168.487Z" transform="translate(-521.016 -2328.837)" fill="#3e3a39"/>
          <path id="パス_386" data-name="パス 386" d="M561.946,2335.853v.859h-4.551v4.538h-.845v-4.538H552v-.859h4.552V2331.3h.845v4.552Z" transform="translate(-519.697 -2328.833)" fill="#3e3a39"/>
          <path id="パス_387" data-name="パス 387" d="M572.382,2340.3a4.454,4.454,0,0,1-3.2,1.908,3.775,3.775,0,0,1-3.78-3.929,4.443,4.443,0,0,1,1.89-3.668,4.958,4.958,0,0,1,2.844-1.066,2.769,2.769,0,0,1,1.74.506.588.588,0,0,1,.3.543.944.944,0,0,1-.673.841c-.094,0-.168-.036-.356-.186a2.777,2.777,0,0,0-1.89-.785c-1.235,0-2.321,1.047-2.321,2.992-.018,2.6,1.759,3.462,2.844,3.462a3,3,0,0,0,2.283-1.029Z" transform="translate(-517.869 -2328.528)" fill="#3e3a39"/>
          <path id="パス_388" data-name="パス 388" d="M578.25,2333.541a4.023,4.023,0,0,1,4.079,4.191,4.193,4.193,0,0,1-4.079,4.472,4.108,4.108,0,0,1-4.154-4.172A4.287,4.287,0,0,1,578.25,2333.541Zm-.225.638c-1.141,0-2.169,1.1-2.169,3.272,0,2.376,1.047,4.1,2.582,4.1,1.159,0,2.132-.841,2.132-3.4C580.57,2335.955,579.672,2334.179,578.026,2334.179Z" transform="translate(-516.683 -2328.528)" fill="#3e3a39"/>
          <path id="パス_389" data-name="パス 389" d="M583.91,2342.582v-.524c1.2-.113,1.347-.207,1.347-1.441v-8.962c0-1.141-.093-1.253-1.291-1.4v-.487a13.279,13.279,0,0,0,2.769-.636v11.488c0,1.234.112,1.328,1.327,1.441v.524Z" transform="translate(-515.344 -2329.129)" fill="#3e3a39"/>
          <path id="パス_390" data-name="パス 390" d="M594.319,2333.541a4.024,4.024,0,0,1,4.08,4.191,4.193,4.193,0,0,1-4.08,4.472,4.108,4.108,0,0,1-4.154-4.172A4.287,4.287,0,0,1,594.319,2333.541Zm-.224.638c-1.142,0-2.171,1.1-2.171,3.272,0,2.376,1.048,4.1,2.582,4.1,1.16,0,2.133-.841,2.133-3.4C596.64,2335.955,595.741,2334.179,594.1,2334.179Z" transform="translate(-514.491 -2328.528)" fill="#3e3a39"/>
          <path id="パス_391" data-name="パス 391" d="M604.53,2341.987h-4.3v-.524c1.178-.113,1.291-.207,1.291-1.422v-3.892c0-1.235-.075-1.291-1.16-1.421v-.469a10.343,10.343,0,0,0,2.639-.767v2.058c.655-.973,1.44-2,2.375-2a.966.966,0,0,1,1.085.9,1.256,1.256,0,0,1-.635,1.029.369.369,0,0,1-.486-.037,1.18,1.18,0,0,0-.842-.467c-.393,0-1.085.579-1.5,1.534v3.517c0,1.234.093,1.328,1.534,1.441Z" transform="translate(-513.119 -2328.534)" fill="#3e3a39"/>
        </g>
      </g>
    </g>
  </g>
</svg>
