<svg xmlns="http://www.w3.org/2000/svg" width="8.281" height="16" viewBox="0 0 8.281 16">
  <g id="グループ_115" data-name="グループ 115" transform="translate(-295.364 -5419.088)">
    <path id="パス_263" data-name="パス 263" d="M300.726,5424.952h2.8c-.117.919-.217,1.791-.354,2.657-.014.091-.246.206-.38.21-.665.022-1.33.01-2.063.01v7.259H297.8v-7.236h-2.439v-2.883h2.414c0-.519-.009-.99,0-1.46a9.863,9.863,0,0,1,.083-1.58,3.188,3.188,0,0,1,3.019-2.8c.89-.089,1.8-.015,2.76-.015,0,.9.011,1.662-.017,2.425,0,.083-.226.217-.354.225-.443.03-.889,0-1.332.018-.794.03-1.144.322-1.2,1.1C300.686,5423.545,300.726,5424.21,300.726,5424.952Z"/>
  </g>
</svg>
