<svg xmlns="http://www.w3.org/2000/svg" width="201.078" height="209.159" viewBox="0 0 201.078 209.159">
  <g id="グループ_228" data-name="グループ 228" transform="translate(-240.276 -2226.241)">
    <path id="パス_171" data-name="パス 171" d="M440.454,2334.748C440.454,2389.49,387.9,2435,333.162,2435s-92.986-45.51-92.986-100.252,38.243-108.107,92.986-108.107S440.454,2280,440.454,2334.748Z" transform="translate(0.5)" fill="none" stroke="#3e3a39" stroke-miterlimit="10" stroke-width="0.8"/>
    <g id="グループ_209" data-name="グループ 209" transform="translate(280 2310.995)">
      <g id="グループ_206" data-name="グループ 206">
        <g id="グループ_205" data-name="グループ 205">
          <path id="パス_348" data-name="パス 348" d="M286.318,2339.125a4.282,4.282,0,0,1-3.079,1.836,3.633,3.633,0,0,1-3.637-3.781,4.274,4.274,0,0,1,1.819-3.529,4.766,4.766,0,0,1,2.737-1.027,2.664,2.664,0,0,1,1.674.487.567.567,0,0,1,.288.523.908.908,0,0,1-.647.809c-.091,0-.163-.036-.342-.179a2.678,2.678,0,0,0-1.819-.756c-1.189,0-2.233,1.009-2.233,2.88-.017,2.5,1.693,3.331,2.737,3.331a2.883,2.883,0,0,0,2.2-.99Z" transform="translate(-279.602 -2327.799)" fill="#3e3a39"/>
          <path id="パス_349" data-name="パス 349" d="M296.941,2340.323a20.7,20.7,0,0,0-2.755.63v-1.387a4.437,4.437,0,0,1-2.755,1.387c-1.206,0-2.251-.738-2.251-2.7v-3.492c0-.973-.144-1.081-.595-1.17l-.5-.09v-.469a24.461,24.461,0,0,0,2.574-.323c-.054.575-.054,1.439-.054,2.628v2.45c0,1.584.828,2.034,1.638,2.034a2.848,2.848,0,0,0,1.944-.864v-4.2c0-.973-.217-1.1-.828-1.189l-.576-.071v-.469a25.527,25.527,0,0,0,2.826-.323v6.032c0,.9.144,1.026.829,1.061l.5.018Z" transform="translate(-278.808 -2327.791)" fill="#3e3a39"/>
          <path id="パス_350" data-name="パス 350" d="M302.209,2340.94a1.812,1.812,0,0,1-.774.234c-1.153,0-1.765-.7-1.765-2.142v-5.24h-1.242l-.072-.216.487-.523h.828v-1.513c.342-.361.865-.828,1.206-1.187l.27.036c-.035.756-.054,1.8-.054,2.664h2.053a.564.564,0,0,1-.108.738h-1.944v4.609c0,1.459.576,1.728,1.044,1.728a2.558,2.558,0,0,0,1.1-.288l.162.468Z" transform="translate(-277.846 -2328.012)" fill="#3e3a39"/>
          <path id="パス_351" data-name="パス 351" d="M317.6,2334.765v.827H313.22v4.367h-.814v-4.367h-4.381v-.827h4.381v-4.381h.814v4.381Z" transform="translate(-276.941 -2328.009)" fill="#3e3a39"/>
          <path id="パス_352" data-name="パス 352" d="M326.036,2334.983c-.324-1.044-.792-1.764-1.89-1.764a1.093,1.093,0,0,0-1.117,1.17c0,.774.523,1.134,1.53,1.6,1.549.738,2.323,1.279,2.323,2.468a2.679,2.679,0,0,1-2.934,2.5,4.71,4.71,0,0,1-2.144-.5c-.09-.521-.252-1.512-.324-2.106l.522-.091c.325,1.153.955,2.09,2.216,2.09a1.2,1.2,0,0,0,1.26-1.225c0-.811-.486-1.225-1.44-1.692-1.26-.613-2.287-1.189-2.287-2.486,0-1.313,1.117-2.323,2.808-2.323a9.188,9.188,0,0,1,1.729.235c.055.431.18,1.566.27,2Z" transform="translate(-275.681 -2327.799)" fill="#3e3a39"/>
          <path id="パス_353" data-name="パス 353" d="M334.111,2341.159v-.5c1.044-.108,1.188-.2,1.188-1.387v-2.952c0-1.5-.575-2.251-1.782-2.233a2.573,2.573,0,0,0-1.909.937v4.249c0,1.172.144,1.279,1.225,1.387v.5h-3.925v-.5c1.043-.09,1.278-.18,1.278-1.387v-8.678c0-.955-.055-1.189-1.261-1.3v-.469a11.159,11.159,0,0,0,2.683-.611v6.14a4.066,4.066,0,0,1,2.612-1.314c1.476,0,2.5.919,2.5,3.079v3.17c0,1.188.144,1.279,1.189,1.368v.5Z" transform="translate(-274.985 -2328.212)" fill="#3e3a39"/>
          <path id="パス_354" data-name="パス 354" d="M345.492,2340.961a1.325,1.325,0,0,1-.847-.341,1.686,1.686,0,0,1-.432-.811,5.635,5.635,0,0,1-2.161,1.153,2.208,2.208,0,0,1-2.2-2.214,1.834,1.834,0,0,1,1.478-1.8,14.232,14.232,0,0,0,2.845-1.17v-.36c0-1.279-.649-2.018-1.585-2.018a1.047,1.047,0,0,0-.846.414,3.861,3.861,0,0,0-.486,1.17.5.5,0,0,1-.522.415.866.866,0,0,1-.793-.792c0-.253.234-.468.594-.721a7.594,7.594,0,0,1,2.593-1.261,2.368,2.368,0,0,1,2.431,2.575v3.475c0,.829.306,1.081.63,1.081a1.43,1.43,0,0,0,.648-.2l.18.5Zm-1.315-4.555c-.4.2-1.26.575-1.674.756-.685.307-1.1.649-1.1,1.316a1.31,1.31,0,0,0,1.3,1.386,2.391,2.391,0,0,0,1.476-.649Z" transform="translate(-273.96 -2327.799)" fill="#3e3a39"/>
          <path id="パス_355" data-name="パス 355" d="M358.636,2340.75v-.5c1.063-.108,1.189-.18,1.189-1.441V2335.8c0-1.277-.432-2.089-1.549-2.089a3.289,3.289,0,0,0-2,.937,7.194,7.194,0,0,1,.055.774v3.492c0,1.134.162,1.225,1.152,1.333v.5H353.63v-.5c1.117-.108,1.278-.18,1.278-1.368v-3.1c0-1.333-.413-2.071-1.513-2.071a3.444,3.444,0,0,0-1.981.937v4.231c0,1.188.126,1.26,1.153,1.368v.5H348.7v-.5c1.189-.108,1.3-.18,1.3-1.368v-3.727c0-1.153-.072-1.225-1.079-1.4v-.451a9.672,9.672,0,0,0,2.5-.72v1.458a12.828,12.828,0,0,1,1.332-.935,2.445,2.445,0,0,1,1.423-.469,2.106,2.106,0,0,1,1.963,1.478c.5-.4.972-.7,1.422-1.009a2.735,2.735,0,0,1,1.423-.469c1.4,0,2.269,1.01,2.269,2.773v3.476c0,1.205.107,1.26,1.134,1.368v.5Z" transform="translate(-273.132 -2327.803)" fill="#3e3a39"/>
          <path id="パス_356" data-name="パス 356" d="M363.707,2333.234a11.711,11.711,0,0,0,2.611-.774v1.44c.055-.036,1.5-.865,1.567-.9a2.529,2.529,0,0,1,1.044-.361,3.25,3.25,0,0,1,3.187,3.44c0,2.735-2.16,4.465-4.519,4.9a3,3,0,0,1-1.28-.324v2.431c0,1.332.144,1.44,1.531,1.566v.5h-4.267v-.5c1.17-.126,1.315-.217,1.315-1.422v-8.194c0-1.08-.036-1.151-1.189-1.314Zm2.611,6.158a2.612,2.612,0,0,0,1.712.7c1.566,0,2.574-1.315,2.574-3.33,0-1.946-1.134-3.043-2.413-3.043a3.609,3.609,0,0,0-1.873.774Z" transform="translate(-271.738 -2327.814)" fill="#3e3a39"/>
          <path id="パス_357" data-name="パス 357" d="M378.33,2332.624a3.872,3.872,0,0,1,3.925,4.034,4.035,4.035,0,0,1-3.925,4.3,3.953,3.953,0,0,1-4-4.015A4.126,4.126,0,0,1,378.33,2332.624Zm-.217.613c-1.1,0-2.089,1.061-2.089,3.15,0,2.287,1.008,3.943,2.485,3.943,1.117,0,2.053-.809,2.053-3.276C380.562,2334.947,379.7,2333.238,378.114,2333.238Z" transform="translate(-270.732 -2327.799)" fill="#3e3a39"/>
          <path id="パス_358" data-name="パス 358" d="M388.472,2332.624a3.872,3.872,0,0,1,3.925,4.034,4.035,4.035,0,0,1-3.925,4.3,3.953,3.953,0,0,1-4-4.015A4.126,4.126,0,0,1,388.472,2332.624Zm-.217.613c-1.1,0-2.089,1.061-2.089,3.15,0,2.287,1.008,3.943,2.485,3.943,1.117,0,2.053-.809,2.053-3.276C390.7,2334.947,389.84,2333.238,388.256,2333.238Z" transform="translate(-269.782 -2327.799)" fill="#3e3a39"/>
        </g>
      </g>
      <g id="グループ_208" data-name="グループ 208" transform="translate(0.261 31.352)">
        <g id="グループ_207" data-name="グループ 207">
          <path id="パス_359" data-name="パス 359" d="M288.231,2359.2c-.99.144-1.153.324-1.656,1.261-.415.792-.991,1.908-1.891,3.781v3.818c0,1.116.09,1.224,1.315,1.368v.522h-4.052v-.522c1.207-.126,1.315-.27,1.315-1.368l-.017-3.8c-.595-1.3-1.153-2.394-1.819-3.781-.54-1.044-.685-1.17-1.585-1.278v-.5h3.746v.5l-.469.072c-.5.091-.594.2-.45.6.377.9,1.17,2.5,1.674,3.618.468-.99,1.315-2.7,1.585-3.4.179-.486.162-.685-.4-.793l-.522-.089v-.5h3.223Zm-6.9,5.312v-.613H286.7v.613Zm0,1.874v-.614h5.383v.614Z" transform="translate(-279.841 -2356.71)" fill="#3e3a39"/>
          <path id="パス_360" data-name="パス 360" d="M295.9,2366.663v1.368c0,1.189.072,1.278,1.351,1.4v.5h-4.214v-.5c1.351-.126,1.44-.234,1.44-1.423v-1.349H289.72v-.54c1.71-2.432,3.564-5.061,5.365-7.563h.81v7.238h1.764v.865Zm-1.423-6.213c-1.134,1.657-2.4,3.493-3.636,5.348h3.636Z" transform="translate(-278.916 -2356.723)" fill="#3e3a39"/>
          <path id="パス_361" data-name="パス 361" d="M307.058,2367.549c-.234.811-.54,1.728-.721,2.4h-6.788v-.433c.991-.971,2.07-2.034,2.954-3.06,1.134-1.332,2.214-2.773,2.214-4.34,0-1.494-.792-2.359-2.106-2.359a3.128,3.128,0,0,0-2.485,1.676l-.414-.379,1.027-1.458a3.269,3.269,0,0,1,2.467-1.081,2.943,2.943,0,0,1,3.06,3.115c0,1.531-.558,2.612-2.268,4.358-.774.81-1.908,1.908-2.683,2.646h3.438c.972,0,1.242-.09,1.855-1.223Z" transform="translate(-277.996 -2356.727)" fill="#3e3a39"/>
          <path id="パス_362" data-name="パス 362" d="M312.977,2358.51c2.7,0,3.709,3.025,3.709,5.816,0,2.628-1.007,5.834-3.709,5.834-2.755,0-3.763-2.97-3.763-5.815C309.214,2361.714,310.24,2358.51,312.977,2358.51Zm0,.63c-1.674,0-2.089,2.648-2.089,5.169s.5,5.221,2.089,5.221c1.621,0,2.053-2.683,2.053-5.2C315.03,2361.788,314.579,2359.14,312.977,2359.14Z" transform="translate(-277.091 -2356.727)" fill="#3e3a39"/>
          <path id="パス_363" data-name="パス 363" d="M322.609,2358.51c2.7,0,3.709,3.025,3.709,5.816,0,2.628-1.008,5.834-3.709,5.834-2.755,0-3.763-2.97-3.763-5.815C318.846,2361.714,319.872,2358.51,322.609,2358.51Zm0,.63c-1.674,0-2.089,2.648-2.089,5.169s.5,5.221,2.089,5.221c1.621,0,2.053-2.683,2.053-5.2C324.662,2361.788,324.211,2359.14,322.609,2359.14Z" transform="translate(-276.189 -2356.727)" fill="#3e3a39"/>
          <path id="パス_364" data-name="パス 364" d="M333.243,2373.59a10.527,10.527,0,0,1,0-16.71l.36.451a11.1,11.1,0,0,0-3.006,7.9,11.42,11.42,0,0,0,3.006,7.9Z" transform="translate(-275.227 -2356.88)" fill="#3e3a39"/>
          <path id="パス_365" data-name="パス 365" d="M346.736,2363.68v.827h-4.381v4.367h-.814v-4.367H337.16v-.827h4.381V2359.3h.814v4.381Z" transform="translate(-274.474 -2356.654)" fill="#3e3a39"/>
          <path id="パス_366" data-name="パス 366" d="M352.842,2369.854a1.815,1.815,0,0,1-.774.234c-1.153,0-1.765-.7-1.765-2.143v-5.239H349.06l-.072-.216.487-.523h.828v-1.512c.342-.361.864-.828,1.206-1.188l.27.036c-.036.756-.054,1.8-.054,2.664h2.053a.564.564,0,0,1-.108.739h-1.944v4.609c0,1.459.576,1.728,1.044,1.728a2.558,2.558,0,0,0,1.1-.288l.162.468Z" transform="translate(-273.366 -2356.656)" fill="#3e3a39"/>
          <path id="パス_367" data-name="パス 367" d="M361.7,2369.876a1.325,1.325,0,0,1-.846-.341,1.687,1.687,0,0,1-.432-.812,5.641,5.641,0,0,1-2.161,1.153,2.208,2.208,0,0,1-2.2-2.214,1.833,1.833,0,0,1,1.476-1.8,14.132,14.132,0,0,0,2.846-1.17v-.36c0-1.279-.649-2.018-1.585-2.018a1.047,1.047,0,0,0-.846.414,3.861,3.861,0,0,0-.486,1.17.5.5,0,0,1-.522.415.866.866,0,0,1-.793-.792c0-.253.234-.468.594-.721a7.583,7.583,0,0,1,2.593-1.261,2.367,2.367,0,0,1,2.431,2.575v3.475c0,.829.306,1.082.63,1.082a1.434,1.434,0,0,0,.648-.2l.18.5Zm-1.315-4.555c-.4.2-1.26.575-1.674.756-.685.307-1.1.648-1.1,1.316a1.31,1.31,0,0,0,1.3,1.385,2.386,2.386,0,0,0,1.476-.649Z" transform="translate(-272.703 -2356.444)" fill="#3e3a39"/>
          <path id="パス_368" data-name="パス 368" d="M368.863,2369.642v-.5c.774-.089.936-.215.631-.7l-1.351-2.105c-.4.647-.793,1.277-1.153,1.908-.342.611-.306.774.63.9v.5h-3.4v-.5a2.25,2.25,0,0,0,2.035-1.152c.5-.7.972-1.4,1.513-2.215l-1.549-2.431a1.826,1.826,0,0,0-1.764-1.116v-.487h3.619v.487c-.757.107-.829.252-.5.774l1.081,1.638c.342-.523.7-1.134,1.026-1.676.306-.5.2-.647-.576-.737v-.487h3.278v.487a2.329,2.329,0,0,0-2.071,1.116c-.252.344-.684.937-1.278,1.837l1.729,2.664c.685.991.883,1.153,1.981,1.3v.5Z" transform="translate(-271.94 -2356.425)" fill="#3e3a39"/>
          <path id="パス_369" data-name="パス 369" d="M374.326,2356.88a10.527,10.527,0,0,1,0,16.71l-.378-.451a11.107,11.107,0,0,0,3.025-7.886,11.3,11.3,0,0,0-3.025-7.922Z" transform="translate(-271.029 -2356.88)" fill="#3e3a39"/>
          <path id="パス_370" data-name="パス 370" d="M391.875,2363.274c.108,2.107-.991,2.9-2.233,2.9a6.96,6.96,0,0,1-2.9-.883,6.569,6.569,0,0,0-2.539-.9c-.757,0-1.206.575-1.224,1.728h-1.063c-.072-1.872.955-2.9,2.323-2.9a6.8,6.8,0,0,1,2.845.9,6.78,6.78,0,0,0,2.612.864c.774,0,1.134-.648,1.134-1.71Z" transform="translate(-270.283 -2356.286)" fill="#3e3a39"/>
        </g>
      </g>
    </g>
  </g>
</svg>
