<svg xmlns="http://www.w3.org/2000/svg" width="144.726" height="18.009" viewBox="0 0 144.726 18.009">
  <g id="グループ_112" data-name="グループ 112" transform="translate(-930.922 -5461.615)">
    <text id="_026-004-124" data-name="026-004-124" transform="translate(950.648 5474.624)" font-size="17" font-family="AcuminProWide-Medium, Acumin Pro Wide" font-weight="500" letter-spacing="0.1em"><tspan x="0" y="0">026-004-124</tspan></text>
    <g id="グループ_111" data-name="グループ 111">
      <path id="パス_258" data-name="パス 258" d="M944.147,5473.577a13.127,13.127,0,0,0-2.719-1.733,1.116,1.116,0,0,0-1.214.776c-.2.531-.472.454-.472.454a10.346,10.346,0,0,1-2.842-2.656,10.455,10.455,0,0,1-2.105-3.285s-.028-.288.523-.394a1.126,1.126,0,0,0,.961-1.079,13.459,13.459,0,0,0-1.226-3.006,1.291,1.291,0,0,0-1.56-.277,3.729,3.729,0,0,0-2.011,3.84,13.2,13.2,0,0,0,2.965,6.293,12.974,12.974,0,0,0,5.625,4.025,3.659,3.659,0,0,0,4.08-1.356A1.328,1.328,0,0,0,944.147,5473.577Z" fill="none" stroke="#231815" stroke-miterlimit="10" stroke-width="1"/>
    </g>
  </g>
</svg>
